<?xml version="1.0" encoding="utf-8"?>
<!-- Generator: Adobe Illustrator 19.0.0, SVG Export Plug-In . SVG Version: 6.00 Build 0)  -->
<svg version="1.1" id="ico-advanced-space" xmlns="http://www.w3.org/2000/svg" xmlns:xlink="http://www.w3.org/1999/xlink" x="0px"
	 y="0px" viewBox="15.167 -16.333 1000.636 1000.678" style="enable-background:new 15.167 -16.333 1000.636 1000.678;"
	 xml:space="preserve">
<path id="ico-advanced-space_1_" d="M734.039,693.972c-36.761,35.737-75.889,72.85-75.889,72.85l-67.463-115.236
	c70.645-17.219,131.718-58.025,174.309-113.554l73.777,125.985C838.773,664.016,786.177,679.147,734.039,693.972L734.039,693.972z
	 M515.485,604.768c-140.476,0-254.323-114.191-254.323-255.001S375.009,94.767,515.485,94.767s254.323,114.191,254.323,255.001
	S655.961,604.768,515.485,604.768L515.485,604.768z M372.82,766.822c0,0-39.129-37.113-75.889-72.85
	c-52.137-14.825-104.733-29.955-104.733-29.955l73.777-125.985c42.591,55.529,103.664,96.335,174.309,113.554L372.82,766.822
	L372.82,766.822z M796.055,488.31c20.443-41.035,32.255-86.987,32.255-135.766c0-170.306-140.068-308.365-312.825-308.365
	S202.66,182.238,202.66,352.544c0,48.779,11.812,94.731,32.255,135.766L107.932,705.077c0,0,80.523,16.175,162.217,32.986
	c54.48,60.674,108.705,121.222,108.705,121.222l116.749-199.344c6.619,0.408,13.162,0.993,19.882,0.993s13.263-0.586,19.883-0.993
	l116.749,199.344c0,0,54.225-60.547,108.705-121.222c81.694-16.811,162.217-32.986,162.217-32.986L796.055,488.31L796.055,488.31z
	 M515.485,477.204c-70.314,0-127.289-57.006-127.289-127.36s56.974-127.36,127.289-127.36s127.289,57.006,127.289,127.36
	S585.799,477.204,515.485,477.204L515.485,477.204z M515.485,171.54c-98.42,0-178.204,79.829-178.204,178.304
	s79.785,178.304,178.204,178.304s178.204-79.829,178.204-178.304S613.904,171.54,515.485,171.54L515.485,171.54z"/>
</svg>
