<?xml version="1.0" encoding="utf-8"?>
<!-- Generator: Adobe Illustrator 19.0.0, SVG Export Plug-In . SVG Version: 6.00 Build 0)  -->
<svg version="1.1" id="图层_1" xmlns:sketch="http://www.bohemiancoding.com/sketch/ns"
	 xmlns="http://www.w3.org/2000/svg" xmlns:xlink="http://www.w3.org/1999/xlink" x="0px" y="0px" viewBox="-892 592 17 17"
	 style="enable-background:new -892 592 17 17;" xml:space="preserve">
<title>Oval 304</title>
<desc>Created with Sketch.</desc>
<path d="M-877.4,594.5c-3.1-3.1-8.2-3.1-11.3,0s-3.1,8.2,0,11.3s8.2,3.1,11.3,0S-874.3,597.6-877.4,594.5z M-879.6,600.6l-5,4.1
	c-0.3,0.3-0.9,0.3-1.2,0c-0.3-0.3-0.3-0.9,0-1.2l4.3-3.6l-4.3-3.6c-0.3-0.3-0.3-0.9,0-1.2c0.3-0.3,0.9-0.3,1.2,0l5,4.1
	c0.2,0.2,0.3,0.4,0.3,0.6C-879.3,600.2-879.4,600.5-879.6,600.6z"/>
</svg>
