<?xml version="1.0" encoding="utf-8"?>
<!-- Generator: Adobe Illustrator 18.1.1, SVG Export Plug-In . SVG Version: 6.00 Build 0)  -->
<svg version="1.1" id="图形" xmlns="http://www.w3.org/2000/svg" xmlns:xlink="http://www.w3.org/1999/xlink" x="0px" y="0px"
	 viewBox="15.167 -16.333 1000.636 1000.678" style="enable-background:new 15.167 -16.333 1000.636 1000.678;"
	 xml:space="preserve">
<g id="_x30_2.-家庭作业1024" sketch:type="MSPage">
	<g id="作业_布置作业_第二步" transform="translate(-558.000000, -274.000000)" sketch:type="MSArtboardGroup">
		<g id="Right" transform="translate(180.000000, 44.000000)" sketch:type="MSLayerGroup">
			<g id="作业完成情况-copy" transform="translate(256.000000, 216.000000)" sketch:type="MSShapeGroup">
				<g id="Date-pick-normal" transform="translate(0.500000, 0.000000)">
					<path id="ico_date" d="M609.665,718.043h54.639v54.639h-54.639V718.043z M609.665,827.32h54.639
						c30.161,0,54.639-24.478,54.639-54.639v-54.639c0-30.161-24.478-54.639-54.639-54.639h-54.639
						c-30.161,0-54.639,24.478-54.639,54.639v54.639C555.027,802.842,579.505,827.32,609.665,827.32L609.665,827.32z
						 M391.11,718.043h54.639v54.639H391.11V718.043z M391.11,827.32h54.639c30.161,0,54.639-24.478,54.639-54.639v-54.639
						c0-30.161-24.478-54.639-54.639-54.639H391.11c-30.161,0-54.639,24.478-54.639,54.639v54.639
						C336.471,802.842,360.949,827.32,391.11,827.32L391.11,827.32z M609.665,499.487h54.639v54.639h-54.639V499.487z
						 M609.665,608.765h54.639c30.161,0,54.639-24.478,54.639-54.639v-54.639c0-30.161-24.478-54.639-54.639-54.639h-54.639
						c-30.161,0-54.639,24.478-54.639,54.639v54.639C555.027,584.287,579.505,608.765,609.665,608.765L609.665,608.765z
						 M391.11,499.487h54.639v54.639H391.11V499.487z M391.11,608.765h54.639c30.161,0,54.639-24.478,54.639-54.639v-54.639
						c0-30.161-24.478-54.639-54.639-54.639H391.11c-30.161,0-54.639,24.478-54.639,54.639v54.639
						C336.471,584.287,360.949,608.765,391.11,608.765L391.11,608.765z M992.137,280.932H281.832v-54.639
						c0-30.161,24.478-54.639,54.639-54.639h109.278v27.319c0,15.108,12.212,27.319,27.319,27.319
						c15.107,0,27.319-12.212,27.319-27.319v-27.319h273.194v27.319c0,15.108,12.212,27.319,27.319,27.319
						c15.108,0,27.319-12.212,27.319-27.319v-27.319h109.278c30.161,0,54.639,24.478,54.639,54.639V280.932L992.137,280.932z
						 M992.137,827.32c0,30.161-24.478,54.639-54.639,54.639H336.471c-30.161,0-54.639-24.478-54.639-54.639v-491.75h710.305V827.32
						L992.137,827.32z M937.499,117.015H828.221V89.696c0-15.08-12.212-27.319-27.319-27.319c-15.108,0-27.319,12.239-27.319,27.319
						v27.319H500.388V89.696c0-15.08-12.212-27.319-27.319-27.319c-15.107,0-27.319,12.239-27.319,27.319v27.319H336.471
						c-60.349,0-109.278,48.929-109.278,109.278V827.32c0,60.349,48.929,109.278,109.278,109.278h601.027
						c60.349,0,109.278-48.929,109.278-109.278V226.293C1046.776,165.944,997.848,117.015,937.499,117.015L937.499,117.015z
						 M828.221,499.487h54.639v54.639h-54.639V499.487z M828.221,608.765h54.639c30.161,0,54.639-24.478,54.639-54.639v-54.639
						c0-30.161-24.478-54.639-54.639-54.639h-54.639c-30.161,0-54.639,24.478-54.639,54.639v54.639
						C773.582,584.287,798.06,608.765,828.221,608.765L828.221,608.765z M828.221,718.043h54.639v54.639h-54.639V718.043z
						 M828.221,827.32h54.639c30.161,0,54.639-24.478,54.639-54.639v-54.639c0-30.161-24.478-54.639-54.639-54.639h-54.639
						c-30.161,0-54.639,24.478-54.639,54.639v54.639C773.582,802.842,798.06,827.32,828.221,827.32L828.221,827.32z"/>
				</g>
			</g>
		</g>
	</g>
</g>
</svg>
