<?xml version="1.0" encoding="utf-8"?>
<!-- Generator: Adobe Illustrator 18.1.1, SVG Export Plug-In . SVG Version: 6.00 Build 0)  -->
<svg version="1.1" id="图形" xmlns="http://www.w3.org/2000/svg" xmlns:xlink="http://www.w3.org/1999/xlink" x="0px" y="0px"
	 viewBox="15.167 -16.333 1000.636 1000.678" style="enable-background:new 15.167 -16.333 1000.636 1000.678;"
	 xml:space="preserve">
<g id="_x30_2.-家庭作业1024_1_" sketch:type="MSPage">
	<g id="作业_布置作业_第二步_1_" transform="translate(-223.000000, -525.000000)" sketch:type="MSArtboardGroup">
		<g id="action-bar" transform="translate(179.000000, 497.000000)" sketch:type="MSLayerGroup">
			<path id="ico_close" sketch:type="MSShapeGroup" d="M559.823,894.261c-211.488,0-382.932-171.499-382.932-382.932
				s171.444-382.932,382.932-382.932s382.932,171.499,382.932,382.932S771.311,894.261,559.823,894.261L559.823,894.261z
				 M559.823,73.692c-241.712,0-437.637,195.843-437.637,437.637S318.11,948.966,559.823,948.966S997.46,753.123,997.46,511.329
				S801.535,73.692,559.823,73.692L559.823,73.692z M716.196,354.874c-10.777-10.667-28.2-10.667-38.977,0l-117.56,117.615
				L443.794,356.515c-10.695-10.667-28.036-10.667-38.676,0c-10.695,10.667-10.695,28.173,0,38.84l115.864,115.7L404.297,627.85
				c-10.749,10.668-10.749,28.173,0,39.114c10.777,10.667,28.228,10.667,39.004,0l116.685-116.794l115.864,115.974
				c10.695,10.667,28.036,10.667,38.704,0c10.695-10.667,10.695-28.173,0-38.84l-115.892-115.7l117.533-117.615
				C726.945,383.047,726.945,365.815,716.196,354.874L716.196,354.874z"/>
		</g>
	</g>
</g>
</svg>
