<?xml version="1.0" encoding="utf-8"?>
<!-- Generator: Adobe Illustrator 18.1.1, SVG Export Plug-In . SVG Version: 6.00 Build 0)  -->
<svg version="1.1" id="circle" xmlns="http://www.w3.org/2000/svg" xmlns:xlink="http://www.w3.org/1999/xlink" x="0px" y="0px"
	 viewBox="15.167 -16.333 1000.636 1000.678" style="enable-background:new 15.167 -16.333 1000.636 1000.678;"
	 xml:space="preserve">
<path id="circle_1_" d="M466.212,83.884c-47.251-16.017-102.312,2.647-142.995,9.908C466.441-7.5,761.974,71.735,847.523,163.12
	c149.041,159.151,98.162,487.123-57.218,623.605c-58.362,51.241-171.457,126.336-266.907,133.598
	c-132.31,10.18-249.327-42.926-319.321-118.769c-51.107-55.312-107.606-163.29-109.6-252.401
	C89.281,323.051,263.614,123.485,466.212,83.884L466.212,83.884z M618.751,105.973c46.866,25.569,126.52,42.366,136.875,89.995
	c-65.325-29.955-101.773-68.097-168.818-80.541c-222.661-41.196-417.79,173.687-438.063,379.147
	c-12.139,123.069,53.592,234.636,123.203,293.766c61.383,52.113,170.288,94.186,282.948,75.83
	c63.792-10.364,154.302-68.552,209.896-118.488C954.01,575.927,944.593,112.146,618.751,105.973
	C613.401,91.613,618.818,97.506,618.751,105.973L618.751,105.973z"/>
</svg>
