<?xml version="1.0" encoding="utf-8"?>
<!-- Generator: Adobe Illustrator 19.0.0, SVG Export Plug-In . SVG Version: 6.00 Build 0)  -->
<svg version="1.1" id="add_1_" xmlns="http://www.w3.org/2000/svg" xmlns:xlink="http://www.w3.org/1999/xlink" x="0px" y="0px"
	 viewBox="15.167 -16.333 1000.636 1000.678" style="enable-background:new 15.167 -16.333 1000.636 1000.678;"
	 xml:space="preserve">
<path id="add" d="M823.898,174.175C652.783,3.06,375.351,3.06,204.235,174.175s-171.115,448.547,0,619.662
	s448.547,171.115,619.662,0S995.013,345.29,823.898,174.175z M620.254,678.717L514.067,572.53L407.879,678.717
	c-24.467,24.467-64.168,24.435-88.563,0.04c-24.445-24.445-24.411-64.113,0.04-88.563l106.187-106.187L319.355,377.819
	c-24.467-24.467-24.435-64.168-0.04-88.563c24.445-24.445,64.113-24.411,88.563,0.04l106.187,106.187l106.187-106.187
	c24.467-24.467,64.168-24.435,88.563-0.04c24.445,24.445,24.411,64.113-0.039,88.563L602.591,484.006l106.187,106.187
	c24.468,24.468,24.435,64.168,0.039,88.563C684.373,703.201,644.705,703.168,620.254,678.717z"/>
</svg>
