<?xml version="1.0" encoding="utf-8"?>
<!-- Generator: Adobe Illustrator 19.0.0, SVG Export Plug-In . SVG Version: 6.00 Build 0)  -->
<svg version="1.1" id="downloadicon_1_" xmlns:sketch="http://www.bohemiancoding.com/sketch/ns"
	 xmlns="http://www.w3.org/2000/svg" xmlns:xlink="http://www.w3.org/1999/xlink" x="0px" y="0px" viewBox="-411 291.3 19 14"
	 style="enable-background:new -411 291.3 19 14;" xml:space="preserve">
<title>downloadicon</title>
<desc>Created with Sketch.</desc>
<path id="downloadicon" d="M-396.4,304.1h-9.9c0,0-3.5-0.4-3.5-3.5c0-1.8,1.6-3.4,3.5-3.5c0-2.4,1.5-4.7,4.1-4.7
	c2,0,3.3,1.2,3.8,2.9c2.9-0.1,4.8,2.2,4.9,4.1C-393.4,301.1-394.9,303.2-396.4,304.1L-396.4,304.1z M-397.5,294.2
	c-0.9-1.7-2.6-2.9-4.7-2.9c-2.8,0-5,2.1-5.2,4.9c-2,0.6-3.5,2.4-3.5,4.5c0,2.5,2.1,4.5,4.7,4.7l9.9,0c2-0.9,4.1-3.3,4.1-5.5
	C-392.3,296.8-394.6,294.4-397.5,294.2L-397.5,294.2z M-398.6,298.5l-2.5,2.5v-5.6c0-0.3-0.3-0.6-0.6-0.6c-0.3,0-0.6,0.3-0.6,0.6
	v5.6l-2.5-2.5c-0.2-0.2-0.6-0.2-0.8,0c-0.2,0.2-0.2,0.6,0,0.8l3.5,3.4c0.1,0.1,0.3,0.2,0.4,0.2c0.2,0,0.3,0,0.4-0.2l3.5-3.4
	c0.2-0.2,0.2-0.6,0-0.8C-398,298.3-398.3,298.3-398.6,298.5L-398.6,298.5z"/>
</svg>
