<?xml version="1.0" encoding="UTF-8" standalone="no"?>
<svg width="480px" height="480px" viewBox="0 0 480 480" version="1.1" xmlns="http://www.w3.org/2000/svg" xmlns:xlink="http://www.w3.org/1999/xlink" xmlns:sketch="http://www.bohemiancoding.com/sketch/ns">
    <!-- Generator: Sketch 3.3 (11970) - http://www.bohemiancoding.com/sketch -->
    <title>comment</title>
    <desc>Created with Sketch.</desc>
    <defs></defs>
    <g id="Web-Font" stroke="none" stroke-width="1" fill="none" fill-rule="evenodd" sketch:type="MSPage">
        <g id="ico_comment" sketch:type="MSArtboardGroup" transform="translate(-40.000000, -40.000000)" fill="#000000">
            <path d="M455.780275,361.538315 C455.780275,380.25702 444.14948,392 426.483562,392 L133.516438,392 C115.85052,392 104.219725,380.25702 104.219725,361.538315 C104.219725,361.538315 104,91.2974774 104,72 L456,72 C456,102.720609 455.780275,361.538315 455.780275,361.538315 L455.780275,361.538315 Z M40,72 L72,72 L72,360 C72,391.847656 89.6992188,424 136,424 L216,424 L152,520 L184,520 L248,424 L312,424 L360,520 L392,520 L344,424 L424,424 C472.664062,424 488,386.585938 488,360 C488,360 490,95.98 488,72 L520,72 L520,40 L40,40 L40,72 Z M184,344 C192.848,344 200,336.848 200,328 L200,264 C200,255.168 192.848,248 184,248 C175.152,248 168,255.168 168,264 L168,328 C168,336.848 175.152,344 184,344 L184,344 Z M376,344 C384.848,344 392,337.498182 392,329.454545 L392,198.545455 C392,190.516364 384.848,184 376,184 C367.152,184 360,190.516364 360,198.545455 L360,329.454545 C360,337.498182 367.152,344 376,344 L376,344 Z M280,344 C288.848,344 296,336.848 296,328 L296,136 C296,127.168 288.848,120 280,120 C271.152,120 264,127.168 264,136 L264,328 C264,336.848 271.152,344 280,344 L280,344 Z" id="comment" sketch:type="MSShapeGroup"></path>
        </g>
    </g>
</svg>