<?xml version="1.0" encoding="UTF-8" standalone="no"?>
<svg width="480px" height="480px" viewBox="0 0 480 480" version="1.1" xmlns="http://www.w3.org/2000/svg" xmlns:xlink="http://www.w3.org/1999/xlink" xmlns:sketch="http://www.bohemiancoding.com/sketch/ns">
    <!-- Generator: Sketch 3.3 (11970) - http://www.bohemiancoding.com/sketch -->
    <title>edit_userinfo</title>
    <desc>Created with Sketch.</desc>
    <defs></defs>
    <g id="Web-Font" stroke="none" stroke-width="1" fill="none" fill-rule="evenodd" sketch:type="MSPage">
        <g id="ico_edit_userinfo" sketch:type="MSArtboardGroup" transform="translate(-40.000000, -40.000000)" fill="#000000">
            <path d="M426.299401,519.476559 L95.1856287,519.476559 C64.7599521,519.476559 40,496.376492 40,467.990525 L40,124.750302 C40,96.3643352 64.7599521,73.2642682 95.1856287,73.2642682 L352.718563,73.2642682 C362.891114,73.2642682 371.113772,80.9528492 371.113772,90.4262793 C371.113772,99.8997095 362.891114,107.588291 352.718563,107.588291 L95.1856287,107.588291 C85.0498683,107.588291 76.7904192,115.294034 76.7904192,124.750302 L76.7904192,467.990525 C76.7904192,477.463955 85.0498683,485.152536 95.1856287,485.152536 L426.299401,485.152536 C436.453557,485.152536 444.694611,477.463955 444.694611,467.990525 L444.694611,193.398346 C444.694611,183.924916 452.917269,176.236335 463.08982,176.236335 C473.262371,176.236335 481.48503,183.924916 481.48503,193.398346 L481.48503,467.990525 C481.48503,496.376492 456.725078,519.476559 426.299401,519.476559 L426.299401,519.476559 Z M318.227545,244.88438 C313.518371,244.88438 308.809198,243.202503 305.222132,239.855911 C298.029605,233.145564 298.029605,222.299173 305.222132,215.588827 L488.033725,45.0327598 C495.226251,38.3224134 506.852024,38.3224134 514.044551,45.0327598 C521.237078,51.7431061 521.237078,62.5894972 514.044551,69.2998436 L331.232958,239.855911 C327.645892,243.219665 322.936719,244.88438 318.227545,244.88438 L318.227545,244.88438 Z M242.347305,244.88438 L131.976048,244.88438 C121.821892,244.88438 113.580838,237.195799 113.580838,227.722369 C113.580838,218.248939 121.821892,210.560358 131.976048,210.560358 L242.347305,210.560358 C252.501461,210.560358 260.742515,218.248939 260.742515,227.722369 C260.742515,237.195799 252.501461,244.88438 242.347305,244.88438 L242.347305,244.88438 Z M352.718563,347.856447 L131.976048,347.856447 C121.821892,347.856447 113.580838,340.185028 113.580838,330.694436 C113.580838,321.203844 121.821892,313.532425 131.976048,313.532425 L352.718563,313.532425 C362.891114,313.532425 371.113772,321.203844 371.113772,330.694436 C371.113772,340.185028 362.891114,347.856447 352.718563,347.856447 L352.718563,347.856447 Z" id="edit_userinfo" sketch:type="MSShapeGroup"></path>
        </g>
    </g>
</svg>