<?xml version="1.0" encoding="UTF-8" standalone="no"?>
<svg width="480px" height="480px" viewBox="0 0 480 480" version="1.1" xmlns="http://www.w3.org/2000/svg" xmlns:xlink="http://www.w3.org/1999/xlink" xmlns:sketch="http://www.bohemiancoding.com/sketch/ns">
    <!-- Generator: Sketch 3.3 (11970) - http://www.bohemiancoding.com/sketch -->
    <title>error</title>
    <desc>Created with Sketch.</desc>
    <defs></defs>
    <g id="Web-Font" stroke="none" stroke-width="1" fill="none" fill-rule="evenodd" sketch:type="MSPage">
        <g id="ico_error" sketch:type="MSArtboardGroup" transform="translate(-40.000000, -40.000000)" fill="#000000">
            <path d="M406,248 L154,248 C144.046,248 136,255.168 136,264 C136,272.848 144.046,280 154,280 L406,280 C415.954,280 424,272.848 424,264 C424,255.168 415.954,248 406,248 L406,248 Z M453.333333,488 L106.666667,488 C87.5306667,488 72,474.858667 72,458.666667 L72,165.333333 C72,149.141333 87.5306667,136 106.666667,136 L168,136 L168,200.056641 L392,200.056641 L392,136 L453.333333,136 C472.469333,136 488,149.141333 488,165.333333 L488,458.666667 C488,474.858667 472.469333,488 453.333333,488 Z M232,104 C232,87.9277344 255.456,72 280,72 C304.544,72 328,88 328,104 L360,104 L360,168 L200,168 L200,104 L232,104 Z M392,104 L392,72 L344,72 C344,56.6660156 311.645714,40 280,40 C248.354286,40 216,56.7421875 216,72 L167.957031,72 L168,104 L104,104 C72.0292969,104 40,126.865 40,160 L40,460 C40,493.135 70.7028571,520 108.571429,520 L451.428571,520 C489.297143,520 520,493.135 520,460 L520,160 C520,126.865 487.537109,104 456,104 L392,104 Z M406,408 L154,408 C144.046,408 136,415.168 136,424 C136,432.848 144.046,440 154,440 L406,440 C415.954,440 424,432.848 424,424 C424,415.168 415.954,408 406,408 L406,408 Z M406,328 L154,328 C144.046,328 136,335.168 136,344 C136,352.848 144.046,360 154,360 L406,360 C415.954,360 424,352.848 424,344 C424,335.168 415.954,328 406,328 L406,328 Z" id="error" sketch:type="MSShapeGroup"></path>
        </g>
    </g>
</svg>