<?xml version="1.0" encoding="UTF-8" standalone="no"?>
<svg width="480px" height="480px" viewBox="0 0 480 480" version="1.1" xmlns="http://www.w3.org/2000/svg" xmlns:xlink="http://www.w3.org/1999/xlink" xmlns:sketch="http://www.bohemiancoding.com/sketch/ns">
    <!-- Generator: Sketch 3.3 (11970) - http://www.bohemiancoding.com/sketch -->
    <title>exam_paper</title>
    <desc>Created with Sketch.</desc>
    <defs></defs>
    <g id="Web-Font" stroke="none" stroke-width="1" fill="none" fill-rule="evenodd" sketch:type="MSPage">
        <g id="ico_exam_paper" sketch:type="MSArtboardGroup" transform="translate(-40.000000, -40.000000)" fill="#000000">
            <path d="M53.725,312.992724 L257.38,410.764186 C275.365,419.833122 283.135,419.833122 302.635,410.764186 L506.275,312.992724 C516.325,307.977571 520,284.439996 520,271.765918 C506.905,278.767906 488.365,288.750144 488.005,288.846282 L280,391.264371 L71.995,288.846282 C72.715,289.310944 53.59,280.065757 40,271.765918 C40,284.167608 42.91,306.855971 53.725,312.992724 L53.725,312.992724 Z M280,493.698483 L71.995,391.264371 C72.715,391.745057 53.59,382.499869 40,374.20003 C40,386.585697 42.91,409.27406 53.725,415.410814 L257.38,513.198298 C275.365,522.267234 283.135,522.267234 302.635,513.198298 L506.275,415.410814 C516.325,410.411683 520,386.874109 520,374.20003 C506.905,381.185995 488.365,391.184257 488.005,391.264371 L280,493.698483 L280,493.698483 Z M280,66.8976934 L488.005,186.396146 L280,280.033711 L71.995,186.396146 L280,66.8976934 L280,66.8976934 Z M53.725,210.542589 L257.38,308.346096 C275.365,317.399009 283.135,317.399009 302.635,308.346096 L506.275,210.542589 C521.275,203.075939 521.77,171.334663 506.275,162.249704 L302.635,47.3978789 C286.63,37.2714345 275.365,37.8001887 257.38,47.3978789 L53.725,162.249704 C38.23,172.920925 37.735,201.489676 53.725,210.542589 L53.725,210.542589 Z M280,66.8976934 C281.5,68.7723675 281.11,67.2982648 280,66.8976934 L280,66.8976934 Z" id="exam_paper" sketch:type="MSShapeGroup"></path>
        </g>
    </g>
</svg>