<?xml version="1.0" encoding="UTF-8" standalone="no"?>
<svg width="480px" height="480px" viewBox="0 0 480 480" version="1.1" xmlns="http://www.w3.org/2000/svg" xmlns:xlink="http://www.w3.org/1999/xlink" xmlns:sketch="http://www.bohemiancoding.com/sketch/ns">
    <!-- Generator: Sketch 3.3 (11970) - http://www.bohemiancoding.com/sketch -->
    <title>exam</title>
    <desc>Created with Sketch.</desc>
    <defs></defs>
    <g id="Web-Font" stroke="none" stroke-width="1" fill="none" fill-rule="evenodd" sketch:type="MSPage">
        <g id="ico_exam" sketch:type="MSArtboardGroup" transform="translate(-40.000000, -40.000000)" fill="#000000">
            <path d="M424,152 C406.96,152 392,126.074694 392,112.154078 L392,72.0267962 L392,72 L472,152 L424,152 L424,152 Z M358.315789,488 L105.684211,488 C88,488 72,473.612 72,458.666667 L72,165.333333 C72,150.388 86.4,136.469333 104.084211,136.469333 L122.526316,136 L122.526316,400 C122.526316,430.198667 154.256842,458.666667 189.894737,458.666667 L392,458.666667 C392,473.612 375.983158,488 358.315789,488 L358.315789,488 Z M452.631579,424 L187.368421,424 C168.8,424 152,409.612 152,394.666667 L152,101.333333 C152,86.388 168.8,72 187.368421,72 L360,72 C360.109631,105.792 360,136 360,136 C360,184 392.100586,184 424,184 L488,184 L488,394.666667 C488,409.612 471.2,424 452.631579,424 Z M194.285714,40 C158.011429,40 125.714286,69.115 125.714286,100 L105.914286,100.405 C69.64,100.405 40,129.115 40,160 L40,460 C40,490.885 72.2971429,520 108.571429,520 L365.714286,520 C401.988571,520 434.285714,490.885 440,456 L456,456 C495.3125,456 520,430.885 520,400 L520,160.345 L400,40 L194.285714,40 Z M400,250.27 L245.714286,250.27 C236.251429,250.27 228.571429,256.975 228.571429,265.255 C228.571429,273.52 236.251429,280.24 245.714286,280.24 L400,280.24 C409.462857,280.24 417.142857,273.52 417.142857,265.255 C417.142857,256.975 409.462857,250.27 400,250.27 L400,250.27 Z M406.545455,328 L249.454545,328 C239.819636,328 232,335.159159 232,344 C232,352.824825 239.819636,360 249.454545,360 L406.545455,360 C416.180364,360 424,352.824825 424,344 C424,335.159159 416.180364,328 406.545455,328 L406.545455,328 Z" id="exam" sketch:type="MSShapeGroup"></path>
        </g>
    </g>
</svg>