<?xml version="1.0" encoding="UTF-8" standalone="no"?>
<svg width="480px" height="480px" viewBox="0 0 480 480" version="1.1" xmlns="http://www.w3.org/2000/svg" xmlns:xlink="http://www.w3.org/1999/xlink" xmlns:sketch="http://www.bohemiancoding.com/sketch/ns">
    <!-- Generator: Sketch 3.3 (11970) - http://www.bohemiancoding.com/sketch -->
    <title>excellent face</title>
    <desc>Created with Sketch.</desc>
    <defs></defs>
    <g id="Web-Font" stroke="none" stroke-width="1" fill="none" fill-rule="evenodd" sketch:type="MSPage">
        <g id="ico_excellent-face" sketch:type="MSArtboardGroup" transform="translate(-40.000000, -40.000000)" fill="#000000">
            <path d="M280,520 C412.54834,520 520,412.54834 520,280 C520,147.45166 412.54834,40 280,40 C147.45166,40 40,147.45166 40,280 C40,412.54834 147.45166,520 280,520 Z M184,232 C210.509668,232 232,258.509668 232,232 C232,205.490332 210.509668,184 184,184 C157.490332,184 136,205.490332 136,232 C136,258.509668 157.490332,232 184,232 Z M376,232 C402.509668,232 424,258.509668 424,232 C424,205.490332 402.509668,184 376,184 C349.490332,184 328,205.490332 328,232 C328,258.509668 349.490332,232 376,232 Z M201.958857,366.827734 C206.682645,372.212114 214.332076,379.685676 224.229263,387.206508 C242.080119,400.771299 260.556366,409.195312 280,409.195312 C299.443634,409.195312 317.919881,400.771299 335.770737,387.206508 C345.667924,379.685676 353.317355,372.212114 358.041143,366.827734 C366.782559,356.863885 365.791582,341.700273 355.827734,332.958857 C345.863885,324.217441 330.700273,325.208418 321.958857,335.172266 C319.182645,338.336715 313.707076,343.686394 306.729263,348.988805 C296.455119,356.796084 286.806366,361.195312 280,361.195312 C273.193634,361.195312 263.544881,356.796084 253.270737,348.988805 C246.292924,343.686394 240.817355,338.336715 238.041143,335.172266 C229.299727,325.208418 214.136115,324.217441 204.172266,332.958857 C194.208418,341.700273 193.217441,356.863885 201.958857,366.827734 L201.958857,366.827734 Z" id="excellent-face" sketch:type="MSShapeGroup"></path>
        </g>
    </g>
</svg>