<?xml version="1.0" encoding="UTF-8" standalone="no"?>
<svg width="454px" height="480px" viewBox="0 0 454 480" version="1.1" xmlns="http://www.w3.org/2000/svg" xmlns:xlink="http://www.w3.org/1999/xlink" xmlns:sketch="http://www.bohemiancoding.com/sketch/ns">
    <!-- Generator: Sketch 3.3 (11970) - http://www.bohemiancoding.com/sketch -->
    <title>excellent</title>
    <desc>Created with Sketch.</desc>
    <defs></defs>
    <g id="Web-Font" stroke="none" stroke-width="1" fill="none" fill-rule="evenodd" sketch:type="MSPage">
        <g id="ico_excellent" sketch:type="MSArtboardGroup" transform="translate(-40.000000, -40.000000)" fill="#000000">
            <path d="M442.360122,163.966942 C442.360122,162.975207 441.871821,161.487603 441.871821,160.495868 C439.918616,158.016529 437.477111,156.528926 434.059003,156.528926 C406.71414,165.454545 368.626653,176.363636 319.796541,188.264463 C317.355036,189.256198 314.91353,189.752066 312.960326,189.752066 C314.91353,179.834711 316.866734,169.421488 319.30824,158.512397 C324.679552,120.330579 327.609359,86.6115702 327.609359,56.8595041 C327.121058,45.9504132 324.191251,40.4958678 318.819939,40 C315.401831,40 312.960326,40.4958678 311.007121,40.4958678 C305.635809,41.9834711 302.706002,44.9586777 302.706002,49.4214876 C302.217701,81.1570248 299.287894,115.867769 293.916582,154.545455 C291.963377,167.933884 289.521872,181.818182 287.080366,195.702479 C262.66531,201.652893 238.250254,206.61157 213.835198,211.07438 C207.975585,213.057851 203.580875,214.545455 199.674466,216.033058 C193.814852,219.504132 190.885046,222.975207 190.885046,226.942149 C191.861648,235.371901 195.279756,239.834711 201.62767,239.834711 C205.045778,239.834711 208.952187,239.834711 213.835198,239.338843 C217.741607,238.347107 224.089522,237.355372 232.878942,235.867769 C248.016277,232.396694 264.130214,228.429752 280.732452,224.46281 C276.826043,240.330579 272.919634,256.694215 269.013225,273.553719 C258.758901,308.264463 248.504578,340 238.738555,367.768595 C226.042726,403.471074 214.323499,434.710744 202.604273,461.487603 C196.256358,475.867769 190.396745,489.256198 185.513733,501.652893 C183.560529,503.636364 182.583927,506.115702 182.583927,509.586777 C182.583927,514.545455 185.513733,517.520661 190.396745,518.016529 C193.326551,518.016529 195.279756,517.024793 197.23296,515.53719 C203.580875,508.595041 210.905392,495.206612 219.694812,475.867769 C227.50763,458.016529 235.808749,437.68595 244.598169,413.884298 C258.2706,373.22314 270.478128,338.016529 280.732452,307.768595 C290.498474,280.495868 298.799593,250.743802 306.612411,218.512397 C311.983723,217.024793 318.331638,215.53719 325.656155,213.553719 C385.717192,198.181818 422.828077,184.793388 437.477111,173.884298 C440.406918,170.413223 442.360122,166.942149 442.360122,163.966942 L442.360122,163.966942 Z M438.453713,121.818182 C441.871821,121.818182 443.825025,120.330579 444.313327,117.355372 C444.313327,115.371901 443.336724,112.892562 442.360122,109.421488 C425.757884,81.6528926 406.225839,65.2892562 383.275687,59.8347107 C381.810783,59.338843 380.34588,58.8429752 379.369278,58.8429752 C377.416073,58.8429752 375.462869,59.8347107 374.486267,60.8264463 C371.55646,62.8099174 370.579858,65.785124 370.579858,69.2561983 C370.579858,74.214876 373.509664,79.6694215 380.34588,86.1157025 C401.342828,105.454545 418.921668,116.859504 432.5941,120.826446 C434.547304,121.818182 436.500509,121.818182 438.453713,121.818182 L438.453713,121.818182 Z M493.143438,441.157025 C493.143438,420.330579 490.213632,401.487603 484.354018,383.636364 C480.447609,373.719008 477.029502,365.785124 473.611394,360.826446 C471.658189,358.842975 469.704985,357.355372 467.263479,356.859504 C461.403866,356.859504 458.474059,359.834711 457.497457,364.793388 C457.497457,370.743802 458.474059,376.694215 460.915565,382.644628 C468.240081,405.454545 472.14649,424.793388 472.14649,440.165289 C472.14649,453.057851 469.704985,463.471074 464.821974,471.900826 C454.079349,484.793388 436.98881,491.735537 414.526958,493.22314 C394.994914,493.22314 378.880977,488.264463 366.185148,478.347107 C351.536114,466.446281 343.723296,446.115702 343.723296,418.347107 C343.723296,406.942149 343.723296,391.570248 344.211597,371.735537 C346.164802,352.892562 349.582909,324.132231 353.489318,285.950413 C353.489318,279.008264 349.582909,275.041322 342.746694,275.041322 C337.375381,275.041322 333.957274,277.520661 332.004069,282.479339 C329.074262,296.363636 326.144456,320.165289 323.214649,354.380165 C321.261445,375.206612 320.773143,395.53719 320.773143,416.363636 C320.773143,434.214876 322.726348,449.586777 327.609359,463.966942 C338.351984,492.727273 359.348932,509.586777 390.600203,514.049587 C397.436419,515.041322 405.737538,516.033058 414.526958,516.033058 C436.98881,515.041322 454.56765,509.586777 468.240081,500.165289 C484.842319,487.768595 493.143438,467.933884 493.143438,441.157025 L493.143438,441.157025 Z M191.373347,71.2396694 C191.373347,65.2892562 187.955239,61.322314 182.095626,59.8347107 C176.724313,59.8347107 172.817904,60.8264463 169.888098,61.8181818 C168.423194,65.785124 166.958291,68.7603306 165.005086,71.7355372 C160.122075,81.6528926 155.727365,91.5702479 151.820956,101.487603 C135.707019,129.256198 121.057986,156.033058 107.385554,181.818182 C89.8067141,212.561983 76.1342828,237.85124 65.3916582,257.68595 C56.1139369,273.553719 48.7894201,286.446281 43.4181078,296.363636 C40.9766022,299.338843 40,302.809917 40,305.785124 C40,311.239669 42.9298067,313.719008 48.301119,313.719008 C51.7192269,313.719008 54.6490336,312.231405 57.5788403,308.264463 C69.2980671,287.438017 80.0406918,269.586777 89.8067141,254.710744 C97.619532,242.809917 104.944049,230.413223 112.268566,218.512397 C117.151577,244.297521 119.593082,271.07438 119.593082,299.338843 L119.593082,331.07438 C119.593082,362.31405 117.151577,392.066116 112.756867,419.834711 C105.43235,462.479339 102.014242,491.735537 102.014242,507.603306 C102.014242,515.53719 104.944049,520 111.780264,520 C117.639878,520 121.546287,516.033058 123.499491,509.090909 C126.917599,492.231405 129.847406,473.38843 132.777213,453.057851 C140.590031,404.46281 144.984741,352.892562 144.984741,297.85124 C144.008138,249.256198 139.125127,213.057851 130.824008,189.752066 L130.335707,189.256198 C132.288911,186.77686 134.242116,183.801653 136.19532,180.826446 C151.820956,155.041322 164.028484,133.22314 173.794507,116.363636 C179.65412,104.46281 184.537131,94.0495868 187.466938,84.6280992 C189.908444,78.677686 191.373347,74.214876 191.373347,71.2396694 L191.373347,71.2396694 Z" id="excellent" sketch:type="MSShapeGroup"></path>
        </g>
    </g>
</svg>