<?xml version="1.0" encoding="utf-8"?>
<!-- Generator: Adobe Illustrator 19.0.0, SVG Export Plug-In . SVG Version: 6.00 Build 0)  -->
<svg version="1.1" id="图层_1" xmlns:sketch="http://www.bohemiancoding.com/sketch/ns"
	 xmlns="http://www.w3.org/2000/svg" xmlns:xlink="http://www.w3.org/1999/xlink" x="0px" y="0px" viewBox="-820 541 160 120"
	 style="enable-background:new -820 541 160 120;" xml:space="preserve">
<title>fa-book</title>
<desc>Created with Sketch.</desc>
<path id="fa-book" d="M-662.4,568.3c-1.4-1.6-3.5-2.7-5.7-3.4c0.1,1.4,0.1,3-0.5,4.5l-28.8,77.1c-1.1,2.8-5.2,4.5-8.7,4.5h-88.7
	c-5.3,0-11.9-0.9-13.8-5.5c-0.8-1.7-0.7-2.4,0.1-3.4c0.9-0.9,2.4-1.2,3.7-1.2h83.5c12.2,0,14.7-2.7,19.2-14.7l26.3-70.8
	c1.3-3.7,0.8-7.3-1.7-10.2c-2.4-2.7-6.4-4.4-11-4.4h-73.2c-1.6,0-3.3,0.4-4.9,0.7l0.1-0.2c-12.2-2.8-13,7.9-17,12.7
	c-1.5,1.8-3.8,3.4-4.2,4.8c-0.3,1.4,0.7,2.7,0.5,4.1c-0.6,4.1-4.4,11.6-6.7,14.1c-1.4,1.6-3.6,2.3-4.2,4.1c-0.6,1.2,0.4,3,0.2,4.7
	c-0.5,3.7-3.8,10.6-6.4,14.2c-1,1.4-2.8,2.5-3.3,4c-0.5,1.3,0.5,3,0,4.5c-1.1,4.1-4.3,10.4-7.2,14.3c-1.5,2.1-3.6,3.4-3.9,5.3
	c-0.2,0.9,0.7,2,0.6,3.2c-0.1,1.9-0.5,3.4-0.7,5c-1.3,3-1.3,6.4,0.2,9.9c3.6,8.1,14,14.5,23.8,14.5h88.7c8.3,0,16.7-5.2,19.1-11.8
	l26.4-70.8C-659.3,574.8-660,571.2-662.4,568.3L-662.4,568.3z M-764.7,568.5l2-5c0.6-1.4,2.4-2.5,4-2.5h58.4c1.7,0,2.7,1.1,2.1,2.5
	l-2,5c-0.6,1.4-2.4,2.5-4,2.5h-58.4C-764.3,571-765.3,569.9-764.7,568.5L-764.7,568.5z M-772.7,588.5l2-5c0.6-1.4,2.4-2.5,4-2.5
	h58.4c1.7,0,2.7,1.1,2.1,2.5l-2,5c-0.6,1.4-2.4,2.5-4,2.5h-58.4C-772.3,591-773.3,589.9-772.7,588.5L-772.7,588.5z"/>
</svg>
