<?xml version="1.0" encoding="utf-8"?>
<!-- Generator: Adobe Illustrator 19.0.0, SVG Export Plug-In . SVG Version: 6.00 Build 0)  -->
<svg version="1.1" id="图层_1" xmlns="http://www.w3.org/2000/svg" xmlns:xlink="http://www.w3.org/1999/xlink" x="0px" y="0px"
	 viewBox="-889 590 22 22" style="enable-background:new -889 590 22 22;" xml:space="preserve">
<title>fa-cog</title>
<desc>Created with Sketch.</desc>
<path id="fa-cog" d="M-874.3,601c0,2-1.6,3.7-3.7,3.7s-3.7-1.6-3.7-3.7s1.6-3.7,3.7-3.7S-874.3,599-874.3,601L-874.3,601z
	 M-867,599.4c0-0.2-0.2-0.5-0.4-0.5l-2.6-0.4c-0.1-0.5-0.3-0.9-0.6-1.4c0.5-0.7,1-1.3,1.5-2c0.1-0.1,0.1-0.2,0.1-0.3
	c0-0.1,0-0.2-0.1-0.3c-0.6-0.8-1.6-1.7-2.4-2.4c-0.1-0.1-0.2-0.1-0.4-0.1s-0.3,0-0.3,0.1l-2,1.5c-0.4-0.2-0.8-0.4-1.3-0.5l-0.4-2.6
	c0-0.2-0.3-0.4-0.5-0.4h-3.2c-0.3,0-0.5,0.2-0.5,0.4c-0.2,0.9-0.3,1.8-0.4,2.7c-0.4,0.1-0.9,0.3-1.3,0.5l-2-1.5
	c-0.1-0.1-0.2-0.1-0.4-0.1c-0.5,0-2.4,2.1-2.8,2.6c-0.1,0.1-0.1,0.2-0.1,0.3s0.1,0.2,0.1,0.3c0.5,0.6,1,1.3,1.5,2
	c-0.2,0.4-0.4,0.9-0.6,1.3l-2.7,0.4c-0.2,0-0.4,0.3-0.4,0.5v3.2c0,0.2,0.2,0.5,0.4,0.5l2.6,0.4c0.1,0.5,0.3,1,0.6,1.4
	c-0.5,0.7-1,1.3-1.5,2c-0.1,0.1-0.1,0.2-0.1,0.3c0,0.1,0,0.2,0.1,0.3c0.6,0.8,1.6,1.7,2.4,2.4c0.1,0.1,0.2,0.2,0.4,0.2
	s0.3,0,0.4-0.1l2-1.5c0.4,0.2,0.8,0.4,1.3,0.5l0.4,2.6c0,0.2,0.3,0.4,0.5,0.4h3.2c0.3,0,0.5-0.2,0.5-0.4c0.2-0.9,0.3-1.8,0.4-2.7
	c0.4-0.1,0.9-0.3,1.3-0.5l2,1.5c0.1,0.1,0.2,0.1,0.4,0.1c0.5,0,2.4-2.1,2.8-2.6c0.1-0.1,0.1-0.2,0.1-0.3s-0.1-0.3-0.1-0.4
	c-0.5-0.6-1-1.3-1.5-2c0.2-0.4,0.4-0.8,0.6-1.3l2.6-0.4c0.2,0,0.4-0.3,0.4-0.5V599.4z"/>
</svg>
