<?xml version="1.0" encoding="utf-8"?>
<!-- Generator: Adobe Illustrator 19.0.0, SVG Export Plug-In . SVG Version: 6.00 Build 0)  -->
<svg version="1.1" id="图层_1" xmlns="http://www.w3.org/2000/svg" xmlns:xlink="http://www.w3.org/1999/xlink" x="0px" y="0px"
	 viewBox="-892 593 16 16" style="enable-background:new -892 593 16 16;" xml:space="preserve">
<title>fa-pencil-square-o</title>
<desc>Created with Sketch.</desc>
<path id="fa-pencil-square-o" d="M-886.1,605h-0.6v-1.1h-1.1v-0.6l1.3-1.3l1.7,1.7L-886.1,605z M-881.1,596.8c0.1,0.1,0.1,0.3,0,0.4
	l-3.9,4c-0.1,0.1-0.3,0.1-0.4,0c-0.1-0.1-0.1-0.3,0-0.4l3.9-4C-881.4,596.7-881.2,596.7-881.1,596.8L-881.1,596.8z M-877.2,603.6
	c0-0.1-0.1-0.3-0.2-0.3s-0.3,0-0.4,0.1l-0.7,0.7c-0.1,0.1-0.1,0.2-0.1,0.2v1.4c0,1-0.8,1.8-1.8,1.8h-8.3c-1,0-1.8-0.8-1.8-1.8v-9.5
	c0-1,0.8-1.8,1.8-1.8h4.3c0.2,0,0.3,0,0.5,0.1c0.1,0,0.3,0,0.4-0.1l0.6-0.6c0.1-0.1,0.1-0.2,0.1-0.3c0-0.1-0.1-0.2-0.2-0.3
	c-0.4-0.2-0.9-0.3-1.3-0.3h-4.3c-1.8,0-3.2,1.5-3.2,3.3v9.5c0,1.8,1.4,3.3,3.2,3.3h8.3c1.8,0,3.2-1.5,3.2-3.3V603.6z M-881.3,595.2
	l-7.5,7.6v3.3h3.2l7.5-7.6L-881.3,595.2z M-876.3,596.7c0.4-0.4,0.4-1.1,0-1.5l-1.7-1.7c-0.4-0.4-1.1-0.4-1.5,0l-1,1l3.2,3.3
	L-876.3,596.7z"/>
</svg>
