<?xml version="1.0" encoding="utf-8"?>
<!-- Generator: Adobe Illustrator 19.0.0, SVG Export Plug-In . SVG Version: 6.00 Build 0)  -->
<svg version="1.1" id="图层_1" xmlns:sketch="http://www.bohemiancoding.com/sketch/ns"
	 xmlns="http://www.w3.org/2000/svg" xmlns:xlink="http://www.w3.org/1999/xlink" x="0px" y="0px" viewBox="-890 590 20 21"
	 style="enable-background:new -890 590 20 21;" xml:space="preserve">
<title>fa-gear</title>
<desc>Created with Sketch.</desc>
<path id="fa-gear" sketch:type="MSShapeGroup" d="M-876.7,600.9c0,1.8-1.5,3.3-3.3,3.3s-3.3-1.5-3.3-3.3s1.5-3.3,3.3-3.3
	S-876.7,599-876.7,600.9L-876.7,600.9z M-870,599.4c0-0.2-0.2-0.4-0.4-0.5l-2.4-0.4c-0.1-0.4-0.3-0.9-0.5-1.3
	c0.4-0.6,0.9-1.2,1.4-1.8c0.1-0.1,0.1-0.2,0.1-0.3c0-0.1,0-0.2-0.1-0.3c-0.5-0.8-1.5-1.6-2.1-2.2c-0.1-0.1-0.2-0.1-0.3-0.1
	s-0.2,0-0.3,0.1l-1.8,1.4c-0.4-0.2-0.8-0.4-1.2-0.5l-0.4-2.4c0-0.2-0.2-0.4-0.5-0.4h-2.9c-0.2,0-0.4,0.2-0.5,0.4
	c-0.2,0.8-0.3,1.6-0.4,2.4c-0.4,0.1-0.8,0.3-1.2,0.5l-1.8-1.4c-0.1-0.1-0.2-0.1-0.3-0.1c-0.4,0-2.2,1.9-2.5,2.3
	c-0.1,0.1-0.1,0.2-0.1,0.3s0.1,0.2,0.1,0.3c0.5,0.6,1,1.2,1.4,1.8c-0.2,0.4-0.4,0.8-0.5,1.2l-2.4,0.4c-0.2,0-0.4,0.3-0.4,0.5v2.9
	c0,0.2,0.2,0.4,0.4,0.5l2.4,0.4c0.1,0.4,0.3,0.9,0.5,1.3c-0.4,0.6-0.9,1.2-1.4,1.8c-0.1,0.1-0.1,0.2-0.1,0.3c0,0.1,0,0.2,0.1,0.3
	c0.5,0.8,1.5,1.6,2.1,2.2c0.1,0.1,0.2,0.1,0.3,0.1s0.2,0,0.3-0.1l1.8-1.4c0.4,0.2,0.8,0.4,1.2,0.5l0.4,2.4c0,0.2,0.2,0.4,0.5,0.4
	h2.9c0.2,0,0.4-0.2,0.5-0.4c0.2-0.8,0.3-1.6,0.4-2.4c0.4-0.1,0.8-0.3,1.2-0.5l1.8,1.4c0.1,0.1,0.2,0.1,0.3,0.1
	c0.4,0,2.2-1.9,2.5-2.3c0.1-0.1,0.1-0.2,0.1-0.3s-0.1-0.2-0.1-0.3c-0.5-0.6-1-1.2-1.4-1.8c0.2-0.4,0.4-0.8,0.5-1.2l2.4-0.4
	c0.2,0,0.4-0.3,0.4-0.5V599.4z"/>
</svg>
