<?xml version="1.0" encoding="UTF-8" standalone="no"?>
<svg width="366px" height="480px" viewBox="0 0 366 480" version="1.1" xmlns="http://www.w3.org/2000/svg" xmlns:xlink="http://www.w3.org/1999/xlink" xmlns:sketch="http://www.bohemiancoding.com/sketch/ns">
    <!-- Generator: Sketch 3.3 (11970) - http://www.bohemiancoding.com/sketch -->
    <title>good</title>
    <desc>Created with Sketch.</desc>
    <defs></defs>
    <g id="Web-Font" stroke="none" stroke-width="1" fill="none" fill-rule="evenodd" sketch:type="MSPage">
        <g id="ico_good" sketch:type="MSArtboardGroup" transform="translate(-86.000000, -40.000000)" fill="#000000">
            <path d="M268.588235,229.72332 C278.098039,214.545455 286.181373,193.201581 292.838235,166.640316 C297.593137,147.667984 299.970588,131.541502 299.970588,118.26087 C299.495098,99.2885375 292.362745,89.8023715 278.098039,89.3280632 C268.112745,89.3280632 256.70098,91.2252964 244.338235,94.5454545 C240.534314,96.4426877 226.269608,101.185771 201.068627,109.72332 C170.637255,120.158103 149.240196,126.798419 136.401961,129.644269 C125.941176,133.913043 112.151961,136.758893 95.0343137,137.70751 C88.8529412,140.079051 86,144.822134 86,152.411067 C86,160.948617 89.3284314,165.217391 96.9362745,165.217391 C100.740196,165.217391 104.544118,165.217391 108.348039,164.743083 L108.348039,171.857708 C107.872549,217.391304 106.921569,270.988142 105.019608,333.12253 C103.117647,382.450593 102.642157,427.509881 102.642157,467.826087 C102.642157,502.450593 107.872549,520 118.333333,520 C129.745098,520 142.107843,515.256917 154.946078,506.719368 C170.161765,494.86166 183.95098,481.106719 195.362745,465.928854 C201.544118,456.442688 204.872549,447.905138 204.872549,440.316206 C204.872549,435.098814 202.970588,432.252964 200.117647,431.778656 C196.789216,431.778656 194.411765,433.201581 192.985294,435.573123 C169.210784,460.711462 147.338235,479.683794 127.367647,492.490119 C125.941176,484.901186 125.465686,470.671937 125.465686,449.328063 C125.465686,421.343874 126.416667,386.245059 127.367647,344.505929 C127.367647,342.134387 127.843137,339.288538 127.843137,336.442688 C130.696078,335.494071 134.02451,333.596838 136.877451,331.699605 C168.259804,314.624506 198.691176,295.652174 228.171569,274.3083 C244.338235,262.924901 256.22549,252.490119 264.308824,242.529644 C267.161765,238.735178 269.063725,234.466403 269.063725,230.671937 L268.588235,229.72332 Z M128.794118,308.932806 C129.745098,289.960474 130.696078,267.667984 132.122549,241.581028 L134.02451,241.581028 C137.828431,240.632411 142.107843,239.209486 145.911765,236.837945 C173.014706,224.980237 199.166667,211.699605 223.892157,197.470356 C237.681373,189.881423 248.142157,182.29249 255.27451,174.703557 C257.651961,171.857708 259.078431,168.537549 259.078431,165.217391 C259.078431,163.320158 257.651961,161.422925 255.27451,159.525692 C253.372549,158.577075 250.995098,157.628458 248.617647,157.628458 C244.813725,157.628458 238.632353,160.948617 231.02451,166.640316 C205.348039,184.189723 174.441176,200.790514 138.303922,216.442688 C136.401961,217.391304 134.97549,217.865613 133.073529,218.339921 C134.02451,200.790514 134.5,181.343874 135.45098,159.525692 C140.205882,158.577075 145.436275,156.679842 151.142157,154.782609 C183.47549,144.347826 215.333333,133.438735 246.715686,121.106719 C259.078431,116.363636 266.686275,113.517787 270.490196,113.517787 C273.343137,113.992095 274.769608,115.41502 275.720588,118.26087 C275.720588,158.102767 262.882353,196.996047 237.205882,235.41502 L236.730392,235.889328 C207.25,261.501976 171.112745,286.166008 129.269608,308.932806 L128.794118,308.932806 Z M311.382353,286.640316 L307.578431,286.640316 C304.72549,286.640316 302.348039,287.588933 300.446078,289.011858 C298.544118,290.434783 296.642157,292.806324 294.740196,295.652174 C275.720588,324.110672 253.372549,349.249012 227.220588,371.067194 C212.955882,359.209486 200.593137,347.826087 191.083333,336.442688 C188.230392,332.648221 184.901961,329.328063 182.04902,326.482213 C179.196078,324.58498 176.818627,323.636364 173.965686,323.636364 C166.357843,325.533597 163.029412,329.802372 163.029412,336.442688 C163.029412,342.608696 165.406863,348.300395 171.112745,353.992095 C212.955882,396.679842 259.078431,434.150198 309.480392,465.928854 C360.833333,498.656126 403.627451,516.679842 437.387255,519.525692 C446.421569,519.525692 451.176471,516.205534 451.176471,510.513834 C451.176471,507.667984 448.323529,504.822134 443.568627,502.450593 C402.676471,485.375494 364.161765,465.454545 327.073529,442.687747 C295.691176,422.766798 268.112745,403.794466 244.338235,385.296443 C260.029412,374.86166 281.426471,353.043478 309.004902,320.790514 C316.612745,312.252964 320.892157,305.612648 320.892157,300.869565 C320.892157,292.806324 317.563725,288.063241 311.382353,286.640316 L311.382353,286.640316 Z M133.073529,67.0355731 C164.931373,76.5217391 194.887255,81.2648221 223.416667,81.2648221 C227.220588,81.2648221 230.54902,80.3162055 234.352941,78.4189723 C237.681373,76.0474308 239.583333,72.7272727 239.583333,68.458498 C239.583333,65.6126482 238.156863,63.715415 236.254902,63.2411067 C195.362745,54.7035573 167.308824,48.5375494 152.568627,44.2687747 C146.387255,44.2687747 143.534314,42.8458498 143.534314,40 C137.352941,40.9486166 132.598039,43.3201581 128.794118,47.5889328 C125.941176,49.9604743 124.990196,51.8577075 124.990196,53.7549407 C124.990196,60.8695652 127.367647,65.1383399 133.073529,67.0355731 L133.073529,67.0355731 Z" id="good" sketch:type="MSShapeGroup"></path>
        </g>
    </g>
</svg>