<?xml version="1.0" encoding="UTF-8" standalone="no"?>
<svg width="480px" height="480px" viewBox="0 0 480 480" version="1.1" xmlns="http://www.w3.org/2000/svg" xmlns:xlink="http://www.w3.org/1999/xlink" xmlns:sketch="http://www.bohemiancoding.com/sketch/ns">
    <!-- Generator: Sketch 3.3 (11970) - http://www.bohemiancoding.com/sketch -->
    <title>good face</title>
    <desc>Created with Sketch.</desc>
    <defs></defs>
    <g id="Web-Font" stroke="none" stroke-width="1" fill="none" fill-rule="evenodd" sketch:type="MSPage">
        <g id="ico_good-face" sketch:type="MSArtboardGroup" transform="translate(-40.000000, -40.000000)" fill="#000000">
            <path d="M280,520 C412.54834,520 520,412.54834 520,280 C520,147.45166 412.54834,40 280,40 C147.45166,40 40,147.45166 40,280 C40,412.54834 147.45166,520 280,520 Z M184,256 C210.509668,256 232,234.509668 232,208 C232,181.490332 210.509668,160 184,160 C157.490332,160 136,181.490332 136,208 C136,234.509668 157.490332,256 184,256 Z M376,256 C402.509668,256 424,234.509668 424,208 C424,181.490332 402.509668,160 376,160 C349.490332,160 328,181.490332 328,208 C328,234.509668 349.490332,256 376,256 Z M201.958857,367.827734 C206.682645,373.212114 214.332076,380.685676 224.229263,388.206508 C242.080119,401.771299 260.556366,410.195312 280,410.195312 C299.443634,410.195312 317.919881,401.771299 335.770737,388.206508 C345.667924,380.685676 353.317355,373.212114 358.041143,367.827734 C366.782559,357.863885 365.791582,342.700273 355.827734,333.958857 C345.863885,325.217441 330.700273,326.208418 321.958857,336.172266 C319.182645,339.336715 313.707076,344.686394 306.729263,349.988805 C296.455119,357.796084 286.806366,362.195312 280,362.195312 C273.193634,362.195312 263.544881,357.796084 253.270737,349.988805 C246.292924,344.686394 240.817355,339.336715 238.041143,336.172266 C229.299727,326.208418 214.136115,325.217441 204.172266,333.958857 C194.208418,342.700273 193.217441,357.863885 201.958857,367.827734 L201.958857,367.827734 Z" id="good-face" sketch:type="MSShapeGroup"></path>
        </g>
    </g>
</svg>