<?xml version="1.0" encoding="UTF-8" standalone="no"?>
<svg width="250px" height="480px" viewBox="0 0 250 480" version="1.1" xmlns="http://www.w3.org/2000/svg" xmlns:xlink="http://www.w3.org/1999/xlink" xmlns:sketch="http://www.bohemiancoding.com/sketch/ns">
    <!-- Generator: Sketch 3.3 (11970) - http://www.bohemiancoding.com/sketch -->
    <title>gotop</title>
    <desc>Created with Sketch.</desc>
    <defs>
        <path d="M211.170999,375.303106 C182.377667,285.34095 177.579728,209.733667 189.420722,152.405569 C201.176243,95.2374152 230.607781,56.2741878 272.917398,40 C317.306882,56.2741878 351.616135,95.0032131 367.292061,152.405569 C382.888212,209.573724 378.973504,285.34095 349.057614,375.303106 C348.333934,340.024277 335.860432,309.240985 301.950058,291.841485 C282.99193,282.056408 278.279465,282.056408 259.321338,291.841485 C225.405265,309.240985 212.692436,340.024277 211.170999,375.303106 L211.170999,375.303106 Z M220.128672,398.23206 C218.367908,354.053552 230.926884,321.905034 262.996719,304.665477 C279.316549,295.845769 282.034622,295.845769 298.434228,304.665477 C330.344512,321.905034 342.419135,354.053552 339.302184,398.23206 L279.715428,398.23206 L220.128672,398.23206 L220.128672,398.23206 Z M348.578959,398.23206 L403.926206,398.23206 C408.160017,356.778293 400.085576,325.269547 375.930631,305.710818 C371.611346,337.859336 362.653674,369.288111 348.578959,398.23206 L348.578959,398.23206 Z M210.851897,398.23206 L155.584425,398.23206 C152.54725,356.778293 161.180121,325.269547 185.42054,305.710818 C189.4948,337.859336 197.734491,369.288111 210.851897,398.23206 L210.851897,398.23206 Z M276.997356,118.731881 C287.869645,118.731881 296.992567,127.551589 297.391446,138.296323 C297.790324,149.041057 289.311306,157.780793 278.513094,157.780793 C267.72058,157.780793 258.683132,149.041057 258.284254,138.296323 C257.879677,127.551589 266.193445,118.731881 276.997356,118.731881 L276.997356,118.731881 Z M278.917671,173.415209 C297.471221,173.415209 312.987597,188.409854 313.3067,206.928954 C313.711276,225.368083 298.827408,240.362728 280.273858,240.362728 C261.800083,240.362728 246.602811,225.368083 246.203932,206.928954 C245.805053,188.409854 260.443896,173.415209 278.917671,173.415209 Z M182.249103,435.892895 C182.807533,429.078186 184.967175,423.223135 188.249376,418.173509 C190.084217,425.62799 192.728212,432.842556 197.20135,439.662978 C198.164357,434.527669 200.802653,430.437701 205.042162,427.313102 C205.28149,449.202428 209.919877,468.521242 216.883157,486.3206 C218.000017,466.27633 220.718089,446.392003 225.914907,426.833274 C231.91518,433.568011 235.835586,440.702606 237.516574,448.397001 C241.830161,440.542663 244.234828,431.397358 243.197744,420.178508 C251.591288,440.622635 261.671519,459.787219 274.709149,476.541235 C270.629191,458.581935 270.310089,440.38272 270.948294,422.343449 C284.943233,449.682256 293.741354,482.15066 296.624676,520 C303.736111,491.050339 308.858851,461.466619 307.656517,429.637986 C311.018493,438.617637 313.896117,447.837201 313.178136,458.981792 C320.45482,454.332024 329.412492,438.292039 330.290025,432.362728 C330.130474,440.217065 331.173256,447.837201 334.615008,454.971796 C338.290389,438.137808 346.689631,425.707961 356.291208,414.163513 C356.690086,425.548019 359.647486,436.292753 365.083631,446.631917 C366.684843,437.172438 369.722018,428.27276 375.802067,420.578365 C379.477448,422.343449 382.520321,425.707961 385.238394,429.877901 C388.195793,421.86362 390.435211,413.763656 392.201673,405.58372 L282.145385,405.58372 L172.094795,405.58372 C174.567842,416.008568 178.089369,426.027847 182.249103,435.892895 Z" id="path-1"></path>
    </defs>
    <g id="Web-Font" stroke="none" stroke-width="1" fill="none" fill-rule="evenodd" sketch:type="MSPage">
        <g id="ico_gotop" sketch:type="MSArtboardGroup" transform="translate(-155.000000, -40.000000)">
            <mask id="mask-2" sketch:name="gotop" fill="white">
                <use xlink:href="#path-1"></use>
            </mask>
            <use id="gotop" fill="#000000" sketch:type="MSShapeGroup" xlink:href="#path-1"></use>
        </g>
    </g>
</svg>