<?xml version="1.0" encoding="UTF-8" standalone="no"?>
<svg width="480px" height="480px" viewBox="0 0 480 480" version="1.1" xmlns="http://www.w3.org/2000/svg" xmlns:xlink="http://www.w3.org/1999/xlink" xmlns:sketch="http://www.bohemiancoding.com/sketch/ns">
    <!-- Generator: Sketch 3.3 (11970) - http://www.bohemiancoding.com/sketch -->
    <title>help</title>
    <desc>Created with Sketch.</desc>
    <defs></defs>
    <g id="Web-Font" stroke="none" stroke-width="1" fill="none" fill-rule="evenodd" sketch:type="MSPage">
        <g id="ico_help" sketch:type="MSArtboardGroup" transform="translate(-40.000000, -40.000000)" fill="#000000">
            <path d="M280,520 C412.54834,520 520,412.54834 520,280 C520,147.45166 412.54834,40 280,40 C147.45166,40 40,147.45166 40,280 C40,412.54834 147.45166,520 280,520 Z M292.1875,445.46875 L245.78125,445.46875 L245.78125,400.46875 L292.1875,400.46875 L292.1875,445.46875 Z M251.40625,362.879463 L251.40625,345.631718 C250.468745,316.362672 262.656123,291.797949 287.96875,271.936811 C315.156386,251.030349 327.812509,230.646855 325.9375,210.785717 C323.124986,181.516671 307.656391,165.83706 279.53125,163.746414 C246.718586,162.701091 226.093792,183.607239 217.65625,226.465485 L176.875,215.489647 C189.062561,151.72494 225.624695,120.888372 286.5625,122.979019 C338.125258,126.114988 366.249977,153.815633 370.9375,206.081787 C372.812509,238.486802 355.937678,267.232755 320.3125,292.320508 C297.812388,308.000354 287.031245,326.815887 287.96875,348.767672 L287.96875,362.879463 L251.40625,362.879463 Z" id="help" sketch:type="MSShapeGroup"></path>
        </g>
    </g>
</svg>