<?xml version="1.0" encoding="UTF-8" standalone="no"?>
<svg width="480px" height="480px" viewBox="0 0 480 480" version="1.1" xmlns="http://www.w3.org/2000/svg" xmlns:xlink="http://www.w3.org/1999/xlink" xmlns:sketch="http://www.bohemiancoding.com/sketch/ns">
    <!-- Generator: Sketch 3.3 (11970) - http://www.bohemiancoding.com/sketch -->
    <title>hide_menu</title>
    <desc>Created with Sketch.</desc>
    <defs></defs>
    <g id="Web-Font" stroke="none" stroke-width="1" fill="none" fill-rule="evenodd" sketch:type="MSPage">
        <g id="ico_hide_menu" sketch:type="MSArtboardGroup" transform="translate(-40.000000, -40.000000)" fill="#000000">
            <path d="M145.140413,201.14469 C162.814875,187.888844 177.142857,195.061188 177.142857,217.14216 L177.142857,342.85784 C177.142857,364.948845 162.822095,372.116571 145.140413,358.85531 L72.0024442,304.001833 C54.3279823,290.745987 54.3207619,269.259429 72.0024442,255.998167 L145.140413,201.14469 Z M40,66.6666667 C40,51.9390733 51.940016,40 66.6627637,40 L493.337236,40 C508.062674,40 520,51.9358351 520,66.6666667 C520,81.39426 508.059984,93.3333333 493.337236,93.3333333 L66.6627637,93.3333333 C51.9373259,93.3333333 40,81.3974982 40,66.6666667 Z M40,493.333333 C40,478.60574 51.940016,466.666667 66.6627637,466.666667 L493.337236,466.666667 C508.062674,466.666667 520,478.602502 520,493.333333 C520,508.060927 508.059984,520 493.337236,520 L66.6627637,520 C51.9373259,520 40,508.064165 40,493.333333 Z M240,200 C240,185.272407 251.932621,173.333333 266.666837,173.333333 L479.99983,173.333333 C494.727517,173.333333 506.666667,185.269168 506.666667,200 C506.666667,214.727593 494.734046,226.666667 479.99983,226.666667 L266.666837,226.666667 C251.93915,226.666667 240,214.730832 240,200 Z M240,360 C240,345.272407 251.932621,333.333333 266.666837,333.333333 L479.99983,333.333333 C494.727517,333.333333 506.666667,345.269168 506.666667,360 C506.666667,374.727593 494.734046,386.666667 479.99983,386.666667 L266.666837,386.666667 C251.93915,386.666667 240,374.730832 240,360 Z" id="hide_menu" sketch:type="MSShapeGroup"></path>
        </g>
    </g>
</svg>