<?xml version="1.0" encoding="UTF-8" standalone="no"?>
<svg
   xmlns:sketch="http://www.bohemiancoding.com/sketch/ns"
   xmlns:dc="http://purl.org/dc/elements/1.1/"
   xmlns:cc="http://creativecommons.org/ns#"
   xmlns:rdf="http://www.w3.org/1999/02/22-rdf-syntax-ns#"
   xmlns:svg="http://www.w3.org/2000/svg"
   xmlns="http://www.w3.org/2000/svg"
   xmlns:sodipodi="http://sodipodi.sourceforge.net/DTD/sodipodi-0.dtd"
   xmlns:inkscape="http://www.inkscape.org/namespaces/inkscape"
   width="44px"
   height="44px"
   viewBox="0 0 44 44"
   version="1.1"
   id="svg2"
   inkscape:version="0.91 r13725"
   sodipodi:docname="hide.svg">
  <metadata
     id="metadata16">
    <rdf:RDF>
      <cc:Work
         rdf:about="">
        <dc:format>image/svg+xml</dc:format>
        <dc:type
           rdf:resource="http://purl.org/dc/dcmitype/StillImage" />
      </cc:Work>
    </rdf:RDF>
  </metadata>
  <sodipodi:namedview
     pagecolor="#ffffff"
     bordercolor="#666666"
     borderopacity="1"
     objecttolerance="10"
     gridtolerance="10"
     guidetolerance="10"
     inkscape:pageopacity="0"
     inkscape:pageshadow="2"
     inkscape:window-width="1920"
     inkscape:window-height="1018"
     id="namedview14"
     showgrid="false"
     inkscape:zoom="5.3636364"
     inkscape:cx="22"
     inkscape:cy="22"
     inkscape:window-x="-8"
     inkscape:window-y="-8"
     inkscape:window-maximized="1"
     inkscape:current-layer="svg2" />
  <!-- Generator: Sketch 3.3 (11970) - http://www.bohemiancoding.com/sketch -->
  <title
     id="title4">ico_hide menu</title>
  <desc
     id="desc6">Created with Sketch.</desc>
  <defs
     id="defs8" />
  <g
     id="UIKIT"
     sketch:type="MSPage"
     transform="matrix(2.1497175,0,0,2.1497175,-25.064972,-25.251412)"
     style="fill:none;fill-rule:evenodd;stroke:none;stroke-width:1">
    <g
       id="ico_hide-menu"
       sketch:type="MSArtboardGroup"
       style="fill:#eaedee">
      <g
         id="ICO-/-hide-menu"
         sketch:type="MSLayerGroup"
         transform="translate(13,13)">
        <path
           d="m 3.5438161,6.3421379 c 0.883126,-0.6623445 1.599041,-0.2992564 1.599041,0.8074189 l 0,3.7008862 c 0,1.10827 -0.7150922,1.470381 -1.599041,0.807419 L 0,9 3.5438161,6.3421379 Z M 0,1 C 0,0.44771525 0.44494629,0 0.99339768,0 L 17.006602,0 C 17.555241,0 18,0.44386482 18,1 18,1.5522847 17.555054,2 17.006602,2 L 0.99339768,2 C 0.44475929,2 0,1.5561352 0,1 Z M 0,17 C 0,16.447715 0.44494629,16 0.99339768,16 L 17.006602,16 C 17.555241,16 18,16.443865 18,17 c 0,0.552285 -0.444946,1 -0.993398,1 L 0.99339768,18 C 0.44475929,18 0,17.556135 0,17 Z M 7.5,6 C 7.5,5.4477152 7.9556644,5 8.4953976,5 L 16.504602,5 C 17.054345,5 17.5,5.4438648 17.5,6 c 0,0.5522847 -0.455664,1 -0.995398,1 L 8.4953976,7 C 7.9456547,7 7.5,6.5561352 7.5,6 Z m 0,6 c 0,-0.552285 0.4556644,-1 0.9953976,-1 l 8.0092044,0 C 17.054345,11 17.5,11.443865 17.5,12 c 0,0.552285 -0.455664,1 -0.995398,1 L 8.4953976,13 C 7.9456547,13 7.5,12.556135 7.5,12 Z"
           id="ico_hide-left"
           sketch:type="MSShapeGroup"
           inkscape:connector-curvature="0" />
      </g>
    </g>
  </g>
</svg>
