<?xml version="1.0" encoding="utf-8"?>
<!-- Generator: Adobe Illustrator 19.0.0, SVG Export Plug-In . SVG Version: 6.00 Build 0)  -->
<svg version="1.1" id="ico-knowledge-map" xmlns="http://www.w3.org/2000/svg" xmlns:xlink="http://www.w3.org/1999/xlink" x="0px"
	 y="0px" viewBox="15.167 -16.333 1000.636 1000.678" style="enable-background:new 15.167 -16.333 1000.636 1000.678;"
	 xml:space="preserve">
<path d="M734.538,512.381c0,15.112,12.242,27.327,27.327,27.327c15.084,0,27.327-12.215,27.327-27.327V293.767
	c0-15.084-12.242-27.327-27.327-27.327c-15.084,0-27.327,12.242-27.327,27.327V512.381L734.538,512.381z M898.499,771.985
	l-163.961-122.97L515.924,812.975l-218.614-81.98L133.35,833.47V286.935L297.31,184.46l218.614,81.98l218.614-163.961
	l163.961,122.97V771.985L898.499,771.985z M734.538,47.826L515.924,211.786l-218.614-81.98L78.696,266.44v655.842L297.31,785.648
	l218.614,81.98l218.614-163.961l218.614,163.961V211.786L734.538,47.826L734.538,47.826z M543.251,403.074
	c-15.084,0-27.327,12.242-27.327,27.327v163.961c0,15.112,12.242,27.327,27.327,27.327c15.084,0,27.327-12.215,27.327-27.327V430.4
	C570.578,415.316,558.335,403.074,543.251,403.074L543.251,403.074z M324.637,321.093c-15.084,0-27.327,12.242-27.327,27.327
	v273.268c0,15.112,12.242,27.327,27.327,27.327c15.084,0,27.327-12.215,27.327-27.327V348.42
	C351.964,333.336,339.721,321.093,324.637,321.093L324.637,321.093z"/>
</svg>
