<?xml version="1.0" encoding="utf-8"?>
<!-- Generator: Adobe Illustrator 19.0.1, SVG Export Plug-In . SVG Version: 6.00 Build 0)  -->
<svg version="1.1" id="ico_list_down_1_" xmlns="http://www.w3.org/2000/svg" xmlns:xlink="http://www.w3.org/1999/xlink" x="0px"
	 y="0px" viewBox="15.167 -16.333 1000.636 1000.678" style="enable-background:new 15.167 -16.333 1000.636 1000.678;"
	 xml:space="preserve">
<path id="ico_list_down" d="M922.967,421.901H500.531c-16.688,0-30.175,14.007-30.175,31.296c0,17.258,13.487,30.796,30.175,30.796
	l422.436,0.5c16.686,0,30.173-14.038,30.173-31.296C953.14,435.907,939.652,421.901,922.967,421.901L922.967,421.901z
	 M922.967,234.095H500.531c-16.688,0-30.175,14.007-30.175,31.296c0,17.289,13.487,31.014,30.175,31.014h422.436
	c16.686,0,30.173-13.725,30.173-31.014C953.14,248.101,939.652,234.095,922.967,234.095L922.967,234.095z M922.967,609.707H681.575
	c-16.688,0-30.175,14.006-30.175,31.265c0,17.289,13.487,30.608,30.175,30.608h241.392c16.686,0,30.173-13.319,30.173-30.608
	C953.14,623.713,939.652,609.707,922.967,609.707L922.967,609.707z M922.967,797.482H560.879c-16.688,0-30.175,14.038-30.175,31.296
	c0,17.289,13.487,31.296,30.175,31.296l362.088-0.907c16.686,0,30.173-13.1,30.173-30.389
	C953.14,811.52,939.652,797.482,922.967,797.482L922.967,797.482z M500.531,108.88l422.436-0.062
	c16.686,0,30.173-13.944,30.173-31.233c0-17.289-13.487-31.296-30.173-31.296H500.531c-16.688,0-30.175,14.007-30.175,31.296
	C470.356,94.873,483.843,108.88,500.531,108.88L500.531,108.88z M551.433,618.524c-11.827-12.318-31.018-12.318-42.817,0
	L349.66,808.018V46.288h-60.348v762.855l-159.891-190.62c-11.799-12.318-30.99-12.318-42.817,0
	c-11.829,12.318-11.829,32.265,0,44.583l209.467,249.742c6.337,6.565,14.695,9.379,22.933,8.91
	c8.266,0.469,16.625-2.345,22.962-8.91l209.467-249.742C563.262,650.789,563.262,630.842,551.433,618.524L551.433,618.524z"/>
</svg>
