<?xml version="1.0" encoding="UTF-8" standalone="no"?>
<svg width="414px" height="480px" viewBox="0 0 414 480" version="1.1" xmlns="http://www.w3.org/2000/svg" xmlns:xlink="http://www.w3.org/1999/xlink" xmlns:sketch="http://www.bohemiancoding.com/sketch/ns">
    <!-- Generator: Sketch 3.3 (11970) - http://www.bohemiancoding.com/sketch -->
    <title>mark x</title>
    <desc>Created with Sketch.</desc>
    <defs></defs>
    <g id="Web-Font" stroke="none" stroke-width="1" fill="none" fill-rule="evenodd" sketch:type="MSPage">
        <g id="ico_mark-x" sketch:type="MSArtboardGroup" transform="translate(-66.000000, -40.000000)" fill="#000000">
            <path d="M471.625632,55.2988048 C465.851602,51.4741036 460.799325,48.9243028 456.468803,48.9243028 C449.973019,48.9243028 432.650927,60.3984064 404.50253,82.7091633 C356.866779,120.318725 305.62226,166.85259 250.768971,221.673307 C208.907251,145.816733 177.150084,88.4462151 156.940978,50.1992032 C152.610455,43.8247012 146.114671,40 136.731872,40 C131.679595,40 126.627319,41.9123506 122.296796,45.7370518 C117.966273,49.561753 116.522766,54.0239044 116.522766,57.8486056 C116.522766,62.310757 117.244519,66.7729084 120.131535,71.87251 C133.844857,98.6454183 144.671164,118.406375 152.610455,131.155378 L219.733558,254.183267 C161.993255,320.478088 115.079258,388.685259 80.4350759,460.079681 C70.3305228,479.203187 66,491.314741 66,497.689243 C66,512.350598 73.2175379,520 88.3743676,520 C97.0354132,520 103.531197,514.262948 109.305228,503.426295 C123.01855,474.741036 133.844857,453.705179 142.505902,439.681275 C149.001686,429.482072 156.219224,416.733068 163.436762,401.434263 C169.932546,388.685259 181.480607,370.836653 197.359191,349.163347 C216.124789,324.302789 231.281619,305.816733 241.386172,293.705179 C283.969646,370.836653 322.222597,439.043825 356.145025,497.689243 C361.919056,507.888446 369.136594,513.625498 377.797639,513.625498 C384.293423,513.625498 390.067454,511.075697 394.397976,507.250996 C398.728499,502.788845 400.893761,498.326693 400.893761,493.227092 C392.232715,465.179283 385.736931,447.330677 382.849916,440.956175 C379.962901,434.581673 373.467116,428.844622 364.084317,425.01992 C335.214165,375.936255 304.900506,321.115538 271.699831,261.195219 C343.875211,187.250996 410.27656,129.243028 470.903879,86.5338645 C476.677909,82.7091633 479.564924,76.9721116 479.564924,69.3227092 C479.564924,64.8605578 476.677909,60.3984064 471.625632,55.2988048 Z" id="mark-x" sketch:type="MSShapeGroup"></path>
        </g>
    </g>
</svg>