<?xml version="1.0" encoding="utf-8"?>
<!-- Generator: Adobe Illustrator 18.1.1, SVG Export Plug-In . SVG Version: 6.00 Build 0)  -->
<svg version="1.1" id="图层_1" xmlns:sketch="http://www.bohemiancoding.com/sketch/ns"
	 xmlns="http://www.w3.org/2000/svg" xmlns:xlink="http://www.w3.org/1999/xlink" x="0px" y="0px" viewBox="-57 180.9 480 480"
	 enable-background="new -57 180.9 480 480" xml:space="preserve">
<title>medium_face</title>
<desc>Created with Sketch.</desc>
<path d="M183,180.9c-132.5,0-240,107.5-240,240s107.5,240,240,240s240-107.5,240-240S315.5,180.9,183,180.9z M39,372.9
	c0-26.5,21.5-48,48-48c26.5,0,48,21.5,48,48c0,26.5-21.5,48-48,48C60.5,420.9,39,399.4,39,372.9z M243,540.9H123
	c-13.3,0-24-10.7-24-24s10.7-24,24-24h120c13.3,0,24,10.7,24,24S256.3,540.9,243,540.9z M279,420.9c-26.5,0-48-21.5-48-48
	c0-26.5,21.5-48,48-48c26.5,0,48,21.5,48,48C327,399.4,305.5,420.9,279,420.9z"/>
</svg>
