<?xml version="1.0" encoding="UTF-8" standalone="no"?>
<svg width="316px" height="480px" viewBox="0 0 316 480" version="1.1" xmlns="http://www.w3.org/2000/svg" xmlns:xlink="http://www.w3.org/1999/xlink" xmlns:sketch="http://www.bohemiancoding.com/sketch/ns">
    <!-- Generator: Sketch 3.3 (11970) - http://www.bohemiancoding.com/sketch -->
    <title>medium</title>
    <desc>Created with Sketch.</desc>
    <defs></defs>
    <g id="Web-Font" stroke="none" stroke-width="1" fill="none" fill-rule="evenodd" sketch:type="MSPage">
        <g id="ico_medium" sketch:type="MSArtboardGroup" transform="translate(-122.000000, -40.000000)" fill="#000000">
            <path d="M379.53304,265.419479 C385.101322,258.939248 391.597651,250.607522 398.558003,239.961427 C407.838473,225.612343 417.118943,208.486017 426.399413,188.582449 C433.823789,169.141755 438,153.866924 438,142.295082 C438,138.592093 436.143906,135.351977 433.359765,131.648987 C430.111601,128.871745 424.543319,127.020251 416.654919,127.020251 C396.237885,127.020251 372.572687,128.408872 345.659325,131.186114 C327.098385,133.037608 308.073421,135.814851 288.584435,139.054966 C288.584435,118.688525 289.048458,90.4532305 290.440529,54.8119576 C290.440529,45.0916104 286.728341,40 279.303965,40 C270.487518,40 266.311307,44.6287367 266.311307,52.9604629 C265.38326,84.8987464 264.919236,114.985535 264.919236,143.683703 C251.926579,145.535198 238.933921,148.31244 225.941263,151.089682 C189.283407,159.884282 163.298091,167.753134 147.985316,174.233365 L147.521292,174.696239 C146.129222,172.381871 143.809104,170.530376 141.024963,169.141755 C139.168869,169.141755 136.848752,168.678881 133.600587,168.678881 C130.816446,168.678881 128.032305,170.530376 126.176211,173.770492 C123.39207,176.547734 122,179.324976 122,182.102218 C131.744493,201.542912 143.345081,226.075217 157.265786,255.236258 C165.618209,275.139826 170.258443,292.266152 172.114537,306.152363 C168.402349,308.929605 166.546256,312.16972 166.546256,315.409836 C166.546256,318.187078 167.010279,320.501446 168.866373,322.352941 C170.258443,325.130183 172.114537,326.981678 173.970631,326.981678 L176.754772,326.981678 C180.930984,326.981678 198.563877,323.278689 230.117474,315.87271 C242.182085,313.558341 254.246696,310.781099 265.38326,308.003857 L266.311307,378.360656 C266.311307,426.962392 267.703377,470.009643 269.559471,508.428158 C269.559471,515.834137 271.879589,520 276.983847,520 C283.480176,520 287.656388,515.834137 289.512482,508.428158 C289.048458,476.952748 288.584435,428.813886 288.584435,364.011572 L288.584435,302.912247 C325.706314,294.580521 355.403818,287.637416 378.140969,282.082932 C382.781204,279.768563 385.101322,276.991321 385.101322,274.214079 C385.101322,272.362584 384.173275,270.048216 382.317181,267.733848 C381.389134,266.8081 380.461087,265.882353 379.53304,265.419479 L379.53304,265.419479 Z M191.603524,299.672131 C191.139501,288.563163 185.571219,266.8081 174.898678,234.406943 C168.402349,217.743491 162.834068,203.857281 158.193833,193.211186 C191.139501,183.027965 226.86931,174.696239 264.919236,168.216008 L264.919236,282.082932 C234.757709,288.563163 210.164464,294.117647 191.603524,299.672131 L191.603524,299.672131 Z M288.584435,164.050145 C291.368576,164.050145 295.080764,163.587271 299.256975,162.661524 C358.187959,153.40405 396.237885,148.775313 413.406755,148.775313 C404.126285,174.696239 392.989721,198.76567 379.53304,221.44648 C371.180617,236.258438 361.900147,250.607522 352.619677,263.567985 C352.155653,264.493732 351.69163,264.956606 351.69163,265.419479 C346.123348,266.345227 340.091043,267.270974 334.058737,268.196721 C317.817915,270.973963 302.50514,274.214079 288.584435,276.991321 L288.584435,164.050145 Z" id="medium" sketch:type="MSShapeGroup"></path>
        </g>
    </g>
</svg>