<?xml version="1.0" encoding="UTF-8" standalone="no"?>
<svg width="477px" height="480px" viewBox="0 0 477 480" version="1.1" xmlns="http://www.w3.org/2000/svg" xmlns:xlink="http://www.w3.org/1999/xlink" xmlns:sketch="http://www.bohemiancoding.com/sketch/ns">
    <!-- Generator: Sketch 3.3 (11970) - http://www.bohemiancoding.com/sketch -->
    <title>open_menu</title>
    <desc>Created with Sketch.</desc>
    <defs></defs>
    <g id="Web-Font" stroke="none" stroke-width="1" fill="none" fill-rule="evenodd" sketch:type="MSPage">
        <g id="ico_open_menu" sketch:type="MSArtboardGroup" transform="translate(-40.000000, -40.000000)" fill="#000000">
            <path d="M415.837734,201.258287 C398.21945,187.939703 383.937008,195.061188 383.937008,217.14216 L383.937008,342.85784 C383.937008,364.948845 398.224955,372.056135 415.837734,358.741713 L488.099274,304.11543 C505.717558,290.796846 505.712053,269.198993 488.099274,255.88457 L415.837734,201.258287 Z M40,66.6666667 C40,51.9390733 51.9353167,40 66.6670085,40 L489.553464,40 C504.281246,40 516.220472,51.9358351 516.220472,66.6666667 C516.220472,81.39426 504.285156,93.3333333 489.553464,93.3333333 L66.6670085,93.3333333 C51.9392264,93.3333333 40,81.3974982 40,66.6666667 Z M40,493.333333 C40,478.60574 51.9353167,466.666667 66.6670085,466.666667 L489.553464,466.666667 C504.281246,466.666667 516.220472,478.602502 516.220472,493.333333 C516.220472,508.060927 504.285156,520 489.553464,520 L66.6670085,520 C51.9392264,520 40,508.064165 40,493.333333 Z M40,199.992063 C40,185.26447 51.9467984,173.325396 66.6708001,173.325396 L277.896129,173.325396 C292.626005,173.325396 304.566929,185.261231 304.566929,199.992063 C304.566929,214.719656 292.620131,226.65873 277.896129,226.65873 L66.6708001,226.65873 C51.940924,226.65873 40,214.722894 40,199.992063 Z M40,359.992063 C40,345.26447 51.9467984,333.325396 66.6708001,333.325396 L277.896129,333.325396 C292.626005,333.325396 304.566929,345.261231 304.566929,359.992063 C304.566929,374.719656 292.620131,386.65873 277.896129,386.65873 L66.6708001,386.65873 C51.940924,386.65873 40,374.722894 40,359.992063 Z" id="open_menu" sketch:type="MSShapeGroup"></path>
        </g>
    </g>
</svg>