<?xml version="1.0" encoding="UTF-8" standalone="no"?>
<svg width="448px" height="480px" viewBox="0 0 448 480" version="1.1" xmlns="http://www.w3.org/2000/svg" xmlns:xlink="http://www.w3.org/1999/xlink" xmlns:sketch="http://www.bohemiancoding.com/sketch/ns">
    <!-- Generator: Sketch 3.3 (11970) - http://www.bohemiancoding.com/sketch -->
    <title>pen_state</title>
    <desc>Created with Sketch.</desc>
    <defs></defs>
    <g id="Web-Font" stroke="none" stroke-width="1" fill="none" fill-rule="evenodd" sketch:type="MSPage">
        <g id="ico_pen_state" sketch:type="MSArtboardGroup" transform="translate(-56.000000, -40.000000)" fill="#000000">
            <path d="M327.999981,40 L232.000019,40 C212.599838,40 200.000031,51.6997132 200.000031,69.9996119 L200.000031,403.50014 L264.000006,509.499722 C273.700097,523.500093 286.299903,523.500093 295.999994,509.499722 L359.999969,403.50014 L359.999969,69.9996119 C359.999969,51.6997132 347.400162,40 327.999981,40 Z M56.0000878,279.999906 C56.0000878,341.900164 106.099786,391.999862 168.000044,391.999862 L168.000044,359.999875 C123.799873,359.999875 88.0000753,324.200077 88.0000753,279.999906 C88.0000753,235.799735 123.799873,199.999937 168.000044,199.999937 L168.000044,167.99995 C106.099786,167.99995 56.0000878,218.099648 56.0000878,279.999906 Z M391.999956,167.99995 L391.999956,199.999937 C436.200127,199.999937 471.999925,235.799735 471.999925,279.999906 C471.999925,324.200077 436.200127,359.999875 391.999956,359.999875 L391.999956,391.999862 C453.900214,391.999862 503.999912,341.900164 503.999912,279.999906 C503.999912,218.099648 453.900214,167.99995 391.999956,167.99995 Z M248.100107,72.1000815 L311.999987,72.1000815 C327.699699,72.2001755 327.999981,71.5996113 327.999981,88.1000752 L327.999981,151.999956 L232.100113,151.999956 L232.100113,88.1000752 C231.599643,72.3002696 232.399642,71.5996113 248.100107,72.1000815 L248.100107,72.1000815 Z M280,471.999831 L232.000019,391.999862 L327.999981,391.999862 L280,471.999831 L280,471.999831 Z M327.999981,359.999875 L232.000019,359.999875 L232.000019,183.999944 L327.999981,183.999944 L327.999981,359.999875 L327.999981,359.999875 Z" id="pen_state" sketch:type="MSShapeGroup"></path>
        </g>
    </g>
</svg>