<?xml version="1.0" encoding="UTF-8" standalone="no"?>
<svg width="480px" height="480px" viewBox="0 0 480 480" version="1.1" xmlns="http://www.w3.org/2000/svg" xmlns:xlink="http://www.w3.org/1999/xlink" xmlns:sketch="http://www.bohemiancoding.com/sketch/ns">
    <!-- Generator: Sketch 3.3 (11970) - http://www.bohemiancoding.com/sketch -->
    <title>periodic_analysis</title>
    <desc>Created with Sketch.</desc>
    <defs></defs>
    <g id="Web-Font" stroke="none" stroke-width="1" fill="none" fill-rule="evenodd" sketch:type="MSPage">
        <g id="ico_periodic_analysis" sketch:type="MSArtboardGroup" transform="translate(-40.000000, -40.000000)" fill="#000000">
            <path d="M413.333333,93.2023811 C413.333333,63.8195174 437.006124,40 466.666667,40 C496.121853,40 520,63.8032746 520,93.2023811 L520,466.797619 C520,496.180483 496.327209,520 466.666667,520 C437.21148,520 413.333333,496.196725 413.333333,466.797619 L413.333333,93.2023811 L413.333333,93.2023811 Z M66.6666667,200.156231 L66.6666667,200.156231 L66.6666667,466.510436 C66.6666667,481.357051 78.6120553,493.333333 93.3333333,493.333333 C108.161897,493.333333 120,481.428891 120,466.510436 L120,200.156231 C120,185.309616 108.054611,173.333333 93.3333333,173.333333 C78.50477,173.333333 66.6666667,185.237776 66.6666667,200.156231 L66.6666667,200.156231 Z M40,200.156231 C40,170.61476 63.6727905,146.666667 93.3333333,146.666667 C122.78852,146.666667 146.666667,170.58827 146.666667,200.156231 L146.666667,466.510436 C146.666667,496.051906 122.993876,520 93.3333333,520 C63.8781467,520 40,496.078397 40,466.510436 L40,200.156231 L40,200.156231 Z M253.333333,279.78712 L253.333333,279.78712 L253.333333,466.879546 C253.333333,481.337651 265.342443,493.333333 280,493.333333 C294.869996,493.333333 306.666667,481.552416 306.666667,466.879546 L306.666667,279.78712 C306.666667,265.329016 294.657557,253.333333 280,253.333333 C265.130004,253.333333 253.333333,265.114251 253.333333,279.78712 L253.333333,279.78712 Z M226.666667,279.78712 C226.666667,250.449504 250.339457,226.666667 280,226.666667 C309.455187,226.666667 333.333333,250.671364 333.333333,279.78712 L333.333333,466.879546 C333.333333,496.217163 309.660543,520 280,520 C250.544813,520 226.666667,495.995302 226.666667,466.879546 L226.666667,279.78712 L226.666667,279.78712 Z M440,93.2023811 L440,93.2023811 L440,466.797619 C440,481.447564 451.917538,493.333333 466.666667,493.333333 C481.527469,493.333333 493.333333,481.525051 493.333333,466.797619 L493.333333,93.2023811 C493.333333,78.5524356 481.415796,66.6666667 466.666667,66.6666667 C451.805864,66.6666667 440,78.4749494 440,93.2023811 L440,93.2023811 Z" id="periodic_analysis" sketch:type="MSShapeGroup"></path>
        </g>
    </g>
</svg>