<?xml version="1.0" encoding="utf-8"?>
<!-- Generator: Adobe Illustrator 19.0.0, SVG Export Plug-In . SVG Version: 6.00 Build 0)  -->
<svg version="1.1" id="图层_1" xmlns:sketch="http://www.bohemiancoding.com/sketch/ns"
	 xmlns="http://www.w3.org/2000/svg" xmlns:xlink="http://www.w3.org/1999/xlink" x="0px" y="0px" viewBox="-894 592 12 18"
	 style="enable-background:new -894 592 12 18;" xml:space="preserve">
<style type="text/css">
	.st0{fill:#FFFFFF;}
</style>
<title>fa-mobile</title>
<desc>Created with Sketch.</desc>
<path id="fa-mobile" class="st0" d="M-886.8,608.2c0,0.6-0.6,1.1-1.2,1.1s-1.2-0.5-1.2-1.1c0-0.6,0.6-1.1,1.2-1.1
	S-886.8,607.6-886.8,608.2L-886.8,608.2z M-883.5,606c0,0.2-0.2,0.5-0.5,0.5h-8c-0.3,0-0.5-0.2-0.5-0.5V596c0-0.2,0.2-0.5,0.5-0.5h8
	c0.3,0,0.5,0.2,0.5,0.5V606z M-886.5,594c0,0.1-0.1,0.2-0.2,0.2h-2.5c-0.1,0-0.2-0.1-0.2-0.2c0-0.1,0.1-0.2,0.2-0.2h2.5
	C-886.6,593.8-886.5,593.9-886.5,594L-886.5,594z M-882,593.8c0-1-0.9-1.8-2-1.8h-8c-1.1,0-2,0.8-2,1.8v14.4c0,1,0.9,1.8,2,1.8h8
	c1.1,0,2-0.8,2-1.8V593.8z"/>
</svg>
