<?xml version="1.0" encoding="utf-8"?>
<!-- Generator: Adobe Illustrator 19.0.0, SVG Export Plug-In . SVG Version: 6.00 Build 0)  -->
<svg version="1.1" id="add_1_" xmlns="http://www.w3.org/2000/svg" xmlns:xlink="http://www.w3.org/1999/xlink" x="0px" y="0px"
	 viewBox="15.167 -16.333 1000.636 1000.678" style="enable-background:new 15.167 -16.333 1000.636 1000.678;"
	 xml:space="preserve">
<path id="add" d="M514.067,45.838c-241.993,0-438.168,196.174-438.168,438.167s196.174,438.168,438.168,438.168
	s438.167-196.174,438.167-438.168S756.06,45.838,514.067,45.838z M726.834,546.602H576.663v150.172
	c0,34.601-28.095,62.652-62.596,62.652c-34.57,0-62.596-28.074-62.596-62.652V546.602H301.299
	c-34.601,0-62.652-28.095-62.652-62.596c0-34.571,28.074-62.596,62.652-62.596h150.172V271.238
	c0-34.601,28.095-62.652,62.596-62.652c34.571,0,62.596,28.074,62.596,62.652V421.41h150.172c34.603,0,62.652,28.095,62.652,62.596
	C789.486,518.576,761.412,546.602,726.834,546.602z"/>
</svg>
