<?xml version="1.0" encoding="utf-8"?>
<!-- Generator: Adobe Illustrator 18.1.1, SVG Export Plug-In . SVG Version: 6.00 Build 0)  -->
<svg version="1.1" id="图层_1" xmlns:sketch="http://www.bohemiancoding.com/sketch/ns"
	 xmlns="http://www.w3.org/2000/svg" xmlns:xlink="http://www.w3.org/1999/xlink" x="0px" y="0px" viewBox="-57 180.9 480 480"
	 enable-background="new -57 180.9 480 480" xml:space="preserve">
<title>poor_face</title>
<desc>Created with Sketch.</desc>
<path d="M183,180.9c-132.5,0-240,107.5-240,240s107.5,240,240,240s240-107.5,240-240S315.5,180.9,183,180.9z M39,360.7
	c0-26.5,21.5,0,48,0c26.5,0,48-26.5,48,0c0,26.5-21.5,48-48,48C60.5,408.7,39,387.2,39,360.7z M258.8,545.1
	c-10,8.7-25.1,7.8-33.9-2.2c-2.8-3.2-8.3-8.5-15.2-13.8c-10.3-7.8-19.9-12.2-26.7-12.2c-6.8,0-16.5,4.4-26.7,12.2
	c-7,5.3-12.5,10.7-15.2,13.8c-8.7,10-23.9,11-33.9,2.2c-10-8.7-11-23.9-2.2-33.9c4.7-5.4,12.4-12.9,22.3-20.4
	c17.9-13.6,36.3-22,55.8-22c19.4,0,37.9,8.4,55.8,22c9.9,7.5,17.5,15,22.3,20.4C269.8,521.2,268.8,536.4,258.8,545.1z M279,408.7
	c-26.5,0-48-21.5-48-48c0-26.5,21.5,0,48,0c26.5,0,48-26.5,48,0C327,387.2,305.5,408.7,279,408.7z"/>
</svg>
