<?xml version="1.0" encoding="UTF-8" standalone="no"?>
<svg width="388px" height="480px" viewBox="0 0 388 480" version="1.1" xmlns="http://www.w3.org/2000/svg" xmlns:xlink="http://www.w3.org/1999/xlink" xmlns:sketch="http://www.bohemiancoding.com/sketch/ns">
    <!-- Generator: Sketch 3.3 (11970) - http://www.bohemiancoding.com/sketch -->
    <title>poor</title>
    <desc>Created with Sketch.</desc>
    <defs></defs>
    <g id="Web-Font" stroke="none" stroke-width="1" fill="none" fill-rule="evenodd" sketch:type="MSPage">
        <g id="ico_poor" sketch:type="MSArtboardGroup" transform="translate(-86.000000, -40.000000)" fill="#000000">
            <path d="M254.084894,130.392749 C251.178527,125.558912 245.850187,117.34139 237.131086,105.740181 C229.865169,95.5891239 223.083645,85.9214502 216.302122,76.2537764 C213.395755,72.3867069 210.004994,69.9697885 206.614232,69.4864048 C204.676654,69.4864048 202.739076,69.9697885 201.770287,69.9697885 C198.86392,71.9033233 196.926342,73.3534743 194.988764,75.2870091 C194.019975,77.2205438 193.051186,79.1540785 193.051186,81.570997 C193.051186,82.5377644 193.051186,83.9879154 193.535581,85.4380665 C199.832709,98.0060423 212.426966,113.47432 231.318352,131.359517 C232.287141,133.293051 234.224719,134.743202 236.162297,135.70997 C219.208489,140.543807 201.770287,145.377644 183.363296,149.244713 C175.612984,150.21148 169.80025,152.145015 165.925094,154.07855 C162.534332,156.012085 160.596754,158.912387 160.596754,161.812689 C160.596754,167.613293 163.503121,171.963746 169.315855,174.864048 L171.737828,174.864048 C179.003745,174.380665 185.785268,172.930514 191.598002,170.513595 C213.88015,165.679758 235.677903,159.879154 257.96005,153.595166 C256.022472,160.845921 254.569288,168.096677 252.63171,175.347432 C250.209738,184.048338 247.787765,192.749245 244.881398,201.450151 C229.380774,205.800604 213.395755,210.151057 195.957553,214.501511 C189.660424,215.468278 184.816479,216.918429 181.910112,218.851964 C178.519351,220.785498 176.581773,223.202417 176.581773,225.619335 C176.581773,230.936556 179.003745,234.803625 184.332085,237.703927 L186.269663,237.703927 C192.082397,236.73716 197.895131,235.770393 203.223471,233.836858 C214.848939,230.936556 225.990012,228.036254 237.615481,224.652568 C231.802747,242.054381 225.505618,258.97281 218.724095,275.407855 C191.598002,282.175227 164.47191,288.459215 137.345818,293.776435 C131.533084,294.743202 126.689139,296.193353 123.782772,297.643505 C117.970037,300.543807 115.06367,303.444109 115.06367,307.311178 C116.032459,315.528701 118.938826,319.879154 124.751561,319.879154 C128.626717,319.879154 132.501873,319.879154 137.345818,319.39577 C142.189763,318.912387 150.908864,317.462236 163.503121,315.045317 C177.066167,312.145015 191.113608,308.761329 205.645443,304.89426 C189.17603,339.697885 170.284644,372.567976 148.486891,402.537764 C132.501873,422.839879 113.610487,441.208459 92.2971286,459.577039 C87.937578,462.477341 86,465.377644 86,468.277946 C86,473.111782 88.4219725,476.012085 93.2659176,476.495468 C96.6566792,476.495468 100.047441,475.528701 103.438202,473.595166 C111.672909,468.761329 119.907615,463.444109 127.657928,456.676737 C148.002497,438.308157 166.409488,417.522659 183.363296,393.353474 C201.770287,366.283988 218.2397,338.247734 231.802747,309.244713 C233.25593,305.377644 235.193508,301.510574 237.131086,297.160121 C253.600499,293.293051 271.038702,288.459215 289.445693,283.625378 C370.339576,261.873112 420.23221,243.021148 439.60799,227.55287 C442.029963,224.652568 443.483146,222.23565 443.483146,219.818731 C443.483146,218.851964 442.998752,217.401813 442.998752,216.435045 C441.545568,214.501511 439.60799,213.534743 437.186017,213.534743 C400.372035,227.069486 348.057428,242.537764 281.210986,259.939577 C270.554307,262.839879 259.897628,265.740181 249.240949,268.1571 C256.022472,250.755287 261.835206,233.353474 267.64794,215.951662 C281.210986,212.084592 294.774032,208.217523 308.337079,203.867069 C326.74407,198.066465 340.307116,192.265861 349.995006,186.465257 C352.416979,183.564955 353.870162,180.181269 353.870162,176.797583 C353.385768,174.864048 351.932584,172.930514 349.995006,170.996979 C348.057428,170.030211 346.11985,169.063444 343.213483,169.063444 C338.369538,169.063444 330.619226,171.480363 319.962547,176.314199 C306.399501,181.63142 290.898876,186.94864 274.429463,192.749245 C275.882647,185.981873 277.820225,178.731118 279.757803,171.480363 C282.179775,160.845921 283.632959,152.145015 284.601748,146.344411 C295.258427,143.444109 305.915106,140.060423 316.571785,136.193353 C338.853933,128.942598 355.80774,122.175227 366.464419,116.374622 C369.370787,112.990937 370.82397,109.123867 370.82397,105.256798 C370.339576,103.323263 368.886392,101.389728 366.464419,98.9728097 C364.042447,98.0060423 361.620474,97.5226586 358.714107,97.5226586 C353.385768,97.5226586 344.182272,100.422961 331.10362,105.256798 C321.41573,109.123867 310.759051,112.990937 300.102372,116.374622 C305.915106,110.574018 311.72784,103.323263 317.540574,94.6223565 C323.353308,84.9546828 326.259675,75.7703927 326.259675,66.102719 C326.259675,57.8851964 323.353308,50.6344411 317.540574,44.8338369 C315.118602,41.9335347 311.243446,40 305.915106,40 C299.133583,40.4833837 295.742821,43.8670695 295.742821,49.6676737 C295.742821,51.6012085 296.227216,53.0513595 297.6804,54.0181269 C300.586767,58.3685801 302.03995,62.2356495 302.03995,66.102719 C302.03995,72.8700906 300.586767,79.1540785 298.649189,83.9879154 C295.742821,89.7885196 291.867665,96.0725076 287.508115,103.323263 C284.601748,108.1571 281.210986,112.507553 278.304619,116.374622 C275.398252,119.758308 272.97628,122.175227 271.523096,123.625378 C271.038702,124.108761 270.554307,124.592145 270.069913,125.558912 C264.741573,127.492447 259.413233,129.425982 254.084894,130.392749 L254.084894,130.392749 Z M374.699126,343.564955 C380.027466,341.148036 382.933833,338.247734 382.933833,335.347432 C382.933833,332.930514 381.480649,330.030211 379.543071,327.129909 C376.636704,324.712991 374.214732,323.26284 371.792759,322.779456 C364.042447,322.779456 353.870162,324.229607 342.244694,326.646526 C285.086142,340.181269 246.334582,350.81571 225.990012,359.516616 C221.630462,362.900302 219.692884,366.767372 219.692884,371.117825 C219.692884,374.018127 220.177278,376.918429 221.630462,378.851964 C223.56804,381.752266 225.505618,383.685801 227.443196,383.685801 L230.833958,383.685801 C233.740325,383.685801 246.818976,380.785498 269.101124,374.501511 C277.33583,372.084592 285.570537,369.667674 293.320849,367.250755 C293.320849,368.217523 293.320849,368.700906 294.289638,369.667674 C297.6804,377.885196 299.617978,389.003021 299.617978,402.537764 C299.617978,410.271903 298.649189,418.489426 296.71161,426.706949 C293.320849,437.824773 289.445693,447.492447 285.086142,457.160121 C283.632959,459.577039 282.66417,461.993958 281.695381,464.410876 C264.257179,466.344411 245.365793,469.728097 225.505618,474.561934 C199.348315,479.39577 176.097378,486.163142 156.237203,494.864048 C148.002497,497.280967 144.127341,501.63142 144.127341,507.915408 C144.127341,510.81571 146.064919,513.232628 148.971286,515.649547 C150.908864,518.549849 153.330836,520 156.237203,520 C158.174782,520 161.081149,519.516616 165.440699,519.033233 C192.566792,508.398792 224.052434,499.697885 259.413233,492.44713 C300.102372,483.746224 337.885144,479.879154 372.761548,479.879154 C396.981273,479.879154 415.872659,480.362538 430.404494,481.812689 C445.905119,483.746224 457.046192,485.196375 463.827715,487.129909 C470.609238,485.196375 474,480.845921 474,474.561934 C474,468.761329 470.124844,465.377644 462.858926,463.927492 C442.514357,459.093656 413.450687,457.160121 375.667915,457.160121 C354.354557,457.160121 331.10362,458.610272 305.915106,461.993958 C309.790262,453.293051 313.665418,444.108761 316.571785,435.407855 C320.446941,420.422961 322.384519,407.371601 322.384519,396.73716 C322.384519,382.23565 320.446941,370.151057 317.540574,360 C340.791511,353.716012 359.682896,348.398792 374.699126,343.564955 L374.699126,343.564955 Z" id="poor" sketch:type="MSShapeGroup"></path>
        </g>
    </g>
</svg>