<?xml version="1.0" encoding="utf-8"?>
<!-- Generator: Adobe Illustrator 19.0.0, SVG Export Plug-In . SVG Version: 6.00 Build 0)  -->
<svg version="1.1" id="图层_1" xmlns:sketch="http://www.bohemiancoding.com/sketch/ns"
	 xmlns="http://www.w3.org/2000/svg" xmlns:xlink="http://www.w3.org/1999/xlink" x="0px" y="0px" viewBox="-891 592 19 18"
	 style="enable-background:new -891 592 19 18;" xml:space="preserve">
<title>fa-qrcode</title>
<desc>Created with Sketch.</desc>
<path id="fa-qrcode" d="M-885.4,605.1h-1.6v1.6h1.6V605.1z M-885.4,595.3h-1.6v1.6h1.6V595.3z M-875.6,595.3h-1.6v1.6h1.6V595.3z
	 M-888.7,608.4v-4.9h4.9v4.9H-888.7z M-888.7,598.5v-4.9h4.9v4.9H-888.7z M-878.9,598.5v-4.9h4.9v4.9H-878.9z M-882.2,601.8h-8.2
	v8.2h8.2V601.8z M-875.6,608.4h-1.6v1.6h1.6V608.4z M-872.3,608.4h-1.6v1.6h1.6V608.4z M-872.3,601.8h-1.6v1.6h-1.6v-1.6h-4.9v8.2
	h1.6v-4.9h1.6v1.6h4.9V601.8z M-882.2,592h-8.2v8.2h8.2V592z M-872.3,592h-8.2v8.2h8.2V592z"/>
</svg>
