<?xml version="1.0" encoding="UTF-8" standalone="no"?>
<svg width="480px" height="480px" viewBox="0 0 480 480" version="1.1" xmlns="http://www.w3.org/2000/svg" xmlns:xlink="http://www.w3.org/1999/xlink" xmlns:sketch="http://www.bohemiancoding.com/sketch/ns">
    <!-- Generator: Sketch 3.3 (11970) - http://www.bohemiancoding.com/sketch -->
    <title>report_list</title>
    <desc>Created with Sketch.</desc>
    <defs></defs>
    <g id="Web-Font" stroke="none" stroke-width="1" fill="none" fill-rule="evenodd" sketch:type="MSPage">
        <g id="ico_report_list" sketch:type="MSArtboardGroup" transform="translate(-40.000000, -40.000000)" fill="#000000">
            <path d="M500,280 L380,280 C368.94,280 360,285.973333 360,293.333333 C360,300.706667 368.94,306.666667 380,306.666667 L500,306.666667 C511.06,306.666667 520,300.706667 520,293.333333 C520,285.973333 511.06,280 500,280 L500,280 Z M500,360 L380,360 C368.94,360 360,365.973333 360,373.333333 C360,380.706667 368.94,386.666667 380,386.666667 L500,386.666667 C511.06,386.666667 520,380.706667 520,373.333333 C520,365.973333 511.06,360 500,360 L500,360 Z M500,440 L380,440 C368.94,440 360,445.973333 360,453.333333 C360,460.706667 368.94,466.666667 380,466.666667 L500,466.666667 C511.06,466.666667 520,460.706667 520,453.333333 C520,445.973333 511.06,440 500,440 L500,440 Z M501.333333,200 L352,200 C341.677333,200 333.333333,205.96 333.333333,213.333333 C333.333333,220.706667 341.677333,226.666667 352,226.666667 L501.333333,226.666667 C511.656,226.666667 520,220.706667 520,213.333333 C520,205.96 511.656,200 501.333333,200 L501.333333,200 Z M352,146.666667 L501.333333,146.666667 C511.656,146.666667 520,140.706667 520,133.333333 C520,125.973333 511.656,120 501.333333,120 L352,120 C341.677333,120 333.333333,125.973333 333.333333,133.333333 C333.333333,140.706667 341.677333,146.666667 352,146.666667 L352,146.666667 Z M306.666667,422.548805 C306.666667,461.637594 277.36,493.333333 241.213333,493.333333 L132.12,493.333333 C95.9733333,493.333333 66.6666667,461.637594 66.6666667,422.548805 L66.6666667,375.359119 C66.6666667,341.917362 88.1733333,314.075447 117,306.666667 C136.666667,325.086374 160.666667,336.034381 186.666667,336.034381 C212.666667,336.034381 236.666667,325.086374 256.333333,306.666667 C285.16,314.075447 306.666667,341.917362 306.666667,375.359119 L306.666667,422.548805 L306.666667,422.548805 Z M93.3333333,186.666667 C93.3333333,120.396667 135.12,66.6666667 186.666667,66.6666667 C238.213333,66.6666667 280,120.396667 280,186.666667 C280,252.936667 238.213333,306.666667 186.666667,306.666667 C135.12,306.666667 93.3333333,252.936667 93.3333333,186.666667 L93.3333333,186.666667 Z M306.666667,181.176471 C306.666667,107.17 252.946667,40 186.666667,40 C120.386667,40 66.6666667,107.17 66.6666667,181.176471 C66.6666667,226.18 78.5228385,268.294154 93.3333333,280 C53.3333333,293.333333 40,333.333333 40,360 L40,435.294118 C40,479.695 75.8266667,520 120,520 L253.333333,520 C297.506667,520 333.333333,479.695 333.333333,435.294118 L333.333333,360 C333.333333,333.333333 320,293.333333 280,280 C296.4,259.375 306.666667,226.18 306.666667,181.176471 Z" id="report_list" sketch:type="MSShapeGroup"></path>
        </g>
    </g>
</svg>