<?xml version="1.0" encoding="utf-8"?>
<!-- Generator: Adobe Illustrator 19.0.0, SVG Export Plug-In . SVG Version: 6.00 Build 0)  -->
<svg version="1.1" id="right_1_" xmlns="http://www.w3.org/2000/svg" xmlns:xlink="http://www.w3.org/1999/xlink" x="0px" y="0px"
	 viewBox="15.167 -16.333 1000.636 1000.678" style="enable-background:new 15.167 -16.333 1000.636 1000.678;"
	 xml:space="preserve">
<path id="right" d="M834.191,339.709c20.162,44.158,31.397,93.247,31.397,144.961c0,192.963-156.428,349.391-349.391,349.391
	S166.806,677.633,166.806,484.67s156.428-349.391,349.391-349.391c107.135,0,203.007,48.22,267.099,124.141L521.132,509.195
	L407.02,395.092l-64.102,64.103l177.586,177.587L834.191,339.709z M516.197,921.409c241.205,0,436.739-195.535,436.739-436.739
	S757.401,47.931,516.197,47.931S79.458,243.465,79.458,484.67S274.992,921.409,516.197,921.409z"/>
</svg>
