<?xml version="1.0" encoding="utf-8"?>
<!-- Generator: Adobe Illustrator 19.0.0, SVG Export Plug-In . SVG Version: 6.00 Build 0)  -->
<svg version="1.1" id="ico-stopwatch_1_" xmlns="http://www.w3.org/2000/svg" xmlns:xlink="http://www.w3.org/1999/xlink" x="0px"
	 y="0px" viewBox="15.167 -16.333 1000.636 1000.678" style="enable-background:new 15.167 -16.333 1000.636 1000.678;"
	 xml:space="preserve">
<path id="run" d="M638.913,195.937c0,0-77.48-32.001-177.631,33.898c-106.369,69.94-83.237,256.09-24.609,299.368
	c-37.83-75.298-52.952-218.417,76.164-193.404c0,0-35.032,395.063-341.003,585.779c91.092,9.275,298.935-141.858,401.729-313.969
	c123.786,39.546,98.048,56.198,98.048,56.198L531.495,889.04c0,0,315.458-208.777,296.483-258.296
	C804.611,565.66,643.15,498.605,643.15,498.605l43.123-106.842c0,0,51.202,11.19,74.098-5.092
	c56.377-40.108,50.693-68.334,50.693-68.334s-98.749,53.257-111.034-48.592C692.913,210.767,638.913,195.937,638.913,195.937z
	 M735.26,113.818c0-37.439-30.484-67.79-68.079-67.79c-37.595,0-68.079,30.351-68.079,67.79c0,37.42,30.484,67.772,68.079,67.772
	C704.776,181.59,735.26,151.238,735.26,113.818z"/>
</svg>
