<?xml version="1.0" encoding="UTF-8" standalone="no"?>
<svg width="480px" height="420px" viewBox="0 0 480 420" version="1.1" xmlns="http://www.w3.org/2000/svg" xmlns:xlink="http://www.w3.org/1999/xlink" xmlns:sketch="http://www.bohemiancoding.com/sketch/ns">
    <!-- Generator: Sketch 3.3 (11970) - http://www.bohemiancoding.com/sketch -->
    <title>set_to</title>
    <desc>Created with Sketch.</desc>
    <defs></defs>
    <g id="Web-Font" stroke="none" stroke-width="1" fill="none" fill-rule="evenodd" sketch:type="MSPage">
        <g id="ico_set_to" sketch:type="MSArtboardGroup" transform="translate(-40.000000, -70.000000)" fill="#000000">
            <path d="M460,70 L160,70 C126.865,70 100,96.865 100,130 L100,190 L130,190 L130,130 C130,113.44 143.44,100 160,100 L460,100 C476.56,100 490,113.44 490,130 L490,430 C490,446.56 476.56,460 460,460 L160,460 C143.44,460 130,446.56 130,430 L130,370 L100,370 L100,430 C100,463.135 126.865,490 160,490 L460,490 C493.135,490 520,463.135 520,430 L520,130 C520,96.865 493.135,70 460,70 L460,70 Z M300.145,373.645 C294.295,379.495 294.295,389.005 300.145,394.855 C305.995,400.72 315.505,400.72 321.37,394.855 L424.855,291.37 C427.975,288.235 429.31,284.08 429.1,280 C429.31,275.92 427.975,271.765 424.855,268.645 L321.37,165.16 C315.505,159.295 305.995,159.295 300.145,165.16 C294.295,170.995 294.295,180.505 300.145,186.37 L378.79,265 L55,265 C46.705,265 40,271.72 40,280 C40,288.295 46.705,295 55,295 L378.79,295 L300.145,373.645 L300.145,373.645 Z" id="set_to" sketch:type="MSShapeGroup"></path>
        </g>
    </g>
</svg>