<?xml version="1.0" encoding="iso-8859-1"?>
<!-- Generator: Adobe Illustrator 16.0.0, SVG Export Plug-In . SVG Version: 6.00 Build 0)  -->
<!DOCTYPE svg PUBLIC "-//W3C//DTD SVG 1.1//EN" "http://www.w3.org/Graphics/SVG/1.1/DTD/svg11.dtd">
<svg version="1.1" id="Capa_1" xmlns="http://www.w3.org/2000/svg" xmlns:xlink="http://www.w3.org/1999/xlink" x="0px" y="0px"
	 width="381.399px" height="381.399px" viewBox="0 0 381.399 381.399" style="enable-background:new 0 0 381.399 381.399;"
	 xml:space="preserve">
<g>
	<path d="M233.757,134.901l-63.649-25.147v266.551c0,2.816-2.286,5.094-5.104,5.094h-51.013c-2.82,0-5.099-2.277-5.099-5.094
		V109.754l-63.658,25.147c-2.138,0.834-4.564,0.15-5.946-1.669c-1.389-1.839-1.379-4.36,0.028-6.187L135.452,1.991
		C136.417,0.736,137.91,0,139.502,0c1.576,0,3.075,0.741,4.041,1.991l96.137,125.061c0.71,0.919,1.061,2.017,1.061,3.109
		c0,1.063-0.346,2.158-1.035,3.078C238.333,135.052,235.891,135.735,233.757,134.901z M197.689,378.887h145.456v-33.62H197.689
		V378.887z M197.689,314.444h145.456v-33.622H197.689V314.444z M197.689,218.251v33.619h145.456v-33.619H197.689z"/>
</g>
<g>
</g>
<g>
</g>
<g>
</g>
<g>
</g>
<g>
</g>
<g>
</g>
<g>
</g>
<g>
</g>
<g>
</g>
<g>
</g>
<g>
</g>
<g>
</g>
<g>
</g>
<g>
</g>
<g>
</g>
</svg>
