<?xml version="1.0" encoding="iso-8859-1"?>
<!-- Generator: Adobe Illustrator 16.0.0, SVG Export Plug-In . SVG Version: 6.00 Build 0)  -->
<!DOCTYPE svg PUBLIC "-//W3C//DTD SVG 1.1//EN" "http://www.w3.org/Graphics/SVG/1.1/DTD/svg11.dtd">
<svg version="1.1" id="Capa_1" xmlns="http://www.w3.org/2000/svg" xmlns:xlink="http://www.w3.org/1999/xlink" x="0px" y="0px"
	 width="424.414px" height="424.414px" viewBox="0 0 424.414 424.414" style="enable-background:new 0 0 424.414 424.414;"
	 xml:space="preserve">
<g>
	<path d="M50.339,274.298l70.826,27.979V5.669c0-3.136,2.545-5.669,5.682-5.669h56.766c3.136,0,5.675,2.533,5.675,5.669v296.608
		l70.835-27.979c2.375-0.932,5.078-0.164,6.619,1.857c1.546,2.046,1.534,4.853-0.031,6.881L159.737,422.197
		c-1.072,1.4-2.737,2.217-4.509,2.217c-1.75,0-3.422-0.828-4.494-2.217L43.748,283.036c-0.792-1.023-1.178-2.247-1.178-3.459
		c0-1.188,0.381-2.405,1.148-3.428C45.258,274.134,47.964,273.366,50.339,274.298z M219.989,178.753h161.855v-37.412H219.989
		V178.753z M219.989,107.041h161.855V69.629H219.989V107.041z M219.989,0v37.412h161.855V0H219.989z"/>
</g>
<g>
</g>
<g>
</g>
<g>
</g>
<g>
</g>
<g>
</g>
<g>
</g>
<g>
</g>
<g>
</g>
<g>
</g>
<g>
</g>
<g>
</g>
<g>
</g>
<g>
</g>
<g>
</g>
<g>
</g>
</svg>
