<?xml version="1.0" encoding="utf-8"?>
<!-- Generator: Adobe Illustrator 19.0.0, SVG Export Plug-In . SVG Version: 6.00 Build 0)  -->
<svg version="1.1" id="ico-stopwatch_1_" xmlns="http://www.w3.org/2000/svg" xmlns:xlink="http://www.w3.org/1999/xlink" x="0px"
	 y="0px" viewBox="15.167 -16.333 1000.636 1000.678" style="enable-background:new 15.167 -16.333 1000.636 1000.678;"
	 xml:space="preserve">
<path id="ico-stopwatch" d="M801.23,235.582c7.087-10.262,4.72-24.484-5.284-31.745l-58.851-42.786
	c-10.005-7.261-23.845-4.831-30.94,5.431l-39.983,57.98c-29.526-14.2-61.225-24.37-94.455-29.787v-23.576
	c0-15.093,12.037-27.45,26.741-27.45h14.767c14.697,0,26.734-12.349,26.734-27.428V73.478c0-15.086-12.037-27.45-26.734-27.45
	H417.758c-14.725,0-26.741,12.363-26.741,27.45v42.743c0,15.079,12.017,27.428,26.741,27.428h14.753
	c14.711,0,26.741,12.356,26.741,27.45v23.576c-35.611,5.817-69.475,17.066-100.755,32.888l-39.628-57.429
	c-7.087-10.27-20.928-12.685-30.933-5.424l-58.851,42.779c-10.005,7.268-12.365,21.482-5.284,31.759l39.955,57.93
	c-64.692,66.263-104.766,157.859-104.766,258.868c0,201.775,159.919,365.938,356.501,365.938
	c196.568,0,356.487-164.163,356.487-365.938c0-103.596-42.155-197.258-109.778-263.885L801.23,235.582z M515.492,834.16
	c-149.399,0-270.944-124.771-270.944-278.114c0-153.35,121.544-278.114,270.944-278.114c149.393,0,270.93,124.764,270.93,278.114
	C786.422,709.389,664.884,834.16,515.492,834.16L515.492,834.16z"/>
</svg>
