<?xml version="1.0" encoding="utf-8"?>
<!-- Generator: Adobe Illustrator 19.0.0, SVG Export Plug-In . SVG Version: 6.00 Build 0)  -->
<svg version="1.1" id="图层_1" xmlns:sketch="http://www.bohemiancoding.com/sketch/ns"
	 xmlns="http://www.w3.org/2000/svg" xmlns:xlink="http://www.w3.org/1999/xlink" x="0px" y="0px" viewBox="-810 541 180 120"
	 style="enable-background:new -810 541 180 120;" xml:space="preserve">
<title>fa-graduation-cap</title>
<desc>Created with Sketch.</desc>
<path id="fa-graduation-cap" sketch:type="MSShapeGroup" d="M-671.4,596.3l-44.8,14.1c-1.2,0.4-2.5,0.5-3.8,0.5s-2.5-0.2-3.8-0.5
	l-44.8-14.1L-770,621c-0.6,11,22.4,20,50,20s50.6-9,50-20L-671.4,596.3z M-630,571c0-1.1-0.7-2-1.7-2.4l-87.5-27.5
	c-0.3-0.1-0.5-0.1-0.8-0.1s-0.5,0-0.8,0.1l-87.5,27.5c-1,0.4-1.7,1.3-1.7,2.4s0.7,2,1.7,2.4l26,8.1c-4.8,6.8-7.2,16.6-7.7,25.8
	c-3,1.7-5.1,4.9-5.1,8.7c0,3.5,1.8,6.6,4.5,8.4l-4.5,33.8c-0.1,0.7,0.2,1.4,0.6,2s1.2,0.9,1.9,0.9h15c0.7,0,1.4-0.3,1.9-0.9
	s0.7-1.2,0.6-2l-4.5-33.8c2.7-1.8,4.5-4.8,4.5-8.4c0-3.7-2-6.8-4.9-8.5c0.6-10.5,3.8-19.1,8.2-22.7l50.9,16.1
	c0.3,0.1,0.5,0.1,0.8,0.1s0.5,0,0.8-0.1l87.5-27.5C-630.7,573-630,572.1-630,571L-630,571z"/>
</svg>
