<?xml version="1.0" encoding="utf-8"?>
<!-- Generator: Adobe Illustrator 19.0.0, SVG Export Plug-In . SVG Version: 6.00 Build 0)  -->
<svg version="1.1" id="图层_1" xmlns:sketch="http://www.bohemiancoding.com/sketch/ns"
	 xmlns="http://www.w3.org/2000/svg" xmlns:xlink="http://www.w3.org/1999/xlink" x="0px" y="0px" viewBox="-820 546 160 110"
	 style="enable-background:new -820 546 160 110;" xml:space="preserve">
<title>fa-eye</title>
<desc>Created with Sketch.</desc>
<path id="fa-eye" sketch:type="MSShapeGroup" d="M-671.4,601c-15.3,25.2-39.9,42.8-68.6,42.8s-53.3-17.6-68.6-42.8
	c8.5-14,20.1-26.1,34-33.7c-3.6,6.5-5.4,13.9-5.4,21.5c0,23.6,17.9,42.8,40,42.8s40-19.2,40-42.8c0-7.5-1.9-15-5.4-21.5
	C-691.5,574.9-679.9,587-671.4,601L-671.4,601z M-735.7,564.3c0,2.5-2,4.6-4.3,4.6c-10.2,0-18.6,9-18.6,19.9c0,2.5-2,4.6-4.3,4.6
	c-2.3,0-4.3-2.1-4.3-4.6c0-15.9,12.2-29,27.1-29C-737.7,559.8-735.7,561.9-735.7,564.3L-735.7,564.3z M-660,601
	c0-2.4-0.7-4.6-1.8-6.6c-16.4-28.8-46.5-48.4-78.2-48.4s-61.8,19.6-78.2,48.4c-1.1,2-1.8,4.2-1.8,6.6s0.7,4.6,1.8,6.6
	c16.4,28.8,46.5,48.4,78.2,48.4s61.8-19.5,78.2-48.4C-660.7,605.6-660,603.4-660,601L-660,601z"/>
</svg>
