<?xml version="1.0" encoding="utf-8"?>
<!-- Generator: Adobe Illustrator 19.0.0, SVG Export Plug-In . SVG Version: 6.00 Build 0)  -->
<svg version="1.1" id="图层_1" xmlns:sketch="http://www.bohemiancoding.com/sketch/ns"
	 xmlns="http://www.w3.org/2000/svg" xmlns:xlink="http://www.w3.org/1999/xlink" x="0px" y="0px" viewBox="-826 542 148 118"
	 style="enable-background:new -826 542 148 118;" xml:space="preserve">
<title>fa-home</title>
<desc>Created with Sketch.</desc>
<path id="fa-home" sketch:type="MSShapeGroup" d="M-699.4,610c0-0.2,0-0.4-0.1-0.6l-52.7-43.6l-52.7,43.6c0,0.2-0.1,0.4-0.1,0.6
	v44.1c0,3.2,2.7,5.9,5.9,5.9h35.2v-35.3h23.4V660h35.2c3.2,0,5.9-2.7,5.9-5.9V610z M-679,603.6c1-1.2,0.8-3.1-0.4-4.1l-20.1-16.7
	v-37.5c0-1.7-1.3-2.9-2.9-2.9H-720c-1.6,0-2.9,1.3-2.9,2.9v17.9l-22.3-18.8c-3.8-3.2-10.1-3.2-13.9,0l-65.8,55.1
	c-1.2,1-1.4,2.9-0.4,4.1l5.7,6.8c0.5,0.6,1.2,0.9,1.9,1c0.8,0.1,1.6-0.2,2.2-0.6l63.4-53.1l63.4,53.1c0.5,0.5,1.2,0.6,1.9,0.6h0.3
	c0.7-0.1,1.5-0.5,1.9-1L-679,603.6z"/>
</svg>
