<?xml version="1.0" encoding="utf-8"?>
<!-- Generator: Adobe Illustrator 19.0.0, SVG Export Plug-In . SVG Version: 6.00 Build 0)  -->
<svg version="1.1" id="图层_1" xmlns:sketch="http://www.bohemiancoding.com/sketch/ns"
	 xmlns="http://www.w3.org/2000/svg" xmlns:xlink="http://www.w3.org/1999/xlink" x="0px" y="0px" viewBox="-833 534 134 134"
	 style="enable-background:new -833 534 134 134;" xml:space="preserve">
<title>fa-pencil-square</title>
<desc>Created with Sketch.</desc>
<path id="fa-pencil-square" sketch:type="MSShapeGroup" d="M-797.8,619.5l-4.5,4.5v4.9h8.4v8.4h4.9l4.5-4.5L-797.8,619.5z
	 M-761.6,585.5c-0.6-0.7-1.8-0.5-2.6,0.3l-25.4,25.4c-0.8,0.8-1,2-0.3,2.6c0.6,0.7,1.8,0.5,2.6-0.3l25.4-25.4
	C-761.1,587.3-760.9,586.1-761.6,585.5L-761.6,585.5z M-785.5,645.7h-25.1v-25.1l47.5-47.5l25.1,25.1L-785.5,645.7z M-732.5,592.6
	l-25.1-25.1l8-8c3.2-3.2,8.6-3.2,11.9,0l13.3,13.3c3.2,3.2,3.2,8.6,0,11.9L-732.5,592.6z M-699,559.1c0-13.9-11.3-25.1-25.1-25.1
	h-83.8c-13.9,0-25.1,11.3-25.1,25.1v83.8c0,13.9,11.3,25.1,25.1,25.1h83.8c13.9,0,25.1-11.3,25.1-25.1V559.1z"/>
</svg>
