<?xml version="1.0" encoding="utf-8"?>
<!-- Generator: Adobe Illustrator 19.0.0, SVG Export Plug-In . SVG Version: 6.00 Build 0)  -->
<svg version="1.1" id="图层_1" xmlns:sketch="http://www.bohemiancoding.com/sketch/ns"
	 xmlns="http://www.w3.org/2000/svg" xmlns:xlink="http://www.w3.org/1999/xlink" x="0px" y="0px" viewBox="-870 571 60 60"
	 style="enable-background:new -870 571 60 60;" xml:space="preserve">
<title>fa-calendar</title>
<desc>Created with Sketch.</desc>
<path id="fa-calendar" sketch:type="MSShapeGroup" d="M-865.4,626.7v-9.6h10.4v9.6H-865.4z M-852.7,626.7v-9.6h11.5v9.6H-852.7z
	 M-865.4,614.9v-10.7h10.4v10.7H-865.4z M-852.7,614.9v-10.7h11.5v10.7H-852.7z M-865.4,602.1v-9.6h10.4v9.6H-865.4z M-838.8,626.7
	v-9.6h11.5v9.6H-838.8z M-852.7,602.1v-9.6h11.5v9.6H-852.7z M-825,626.7v-9.6h10.4v9.6H-825z M-838.8,614.9v-10.7h11.5v10.7H-838.8
	z M-851.5,586c0,0.6-0.5,1.1-1.2,1.1h-2.3c-0.6,0-1.2-0.5-1.2-1.1v-9.6c0-0.6,0.5-1.1,1.2-1.1h2.3c0.6,0,1.2,0.5,1.2,1.1V586z
	 M-825,614.9v-10.7h10.4v10.7H-825z M-838.8,602.1v-9.6h11.5v9.6H-838.8z M-825,602.1v-9.6h10.4v9.6H-825z M-823.8,586
	c0,0.6-0.5,1.1-1.2,1.1h-2.3c-0.6,0-1.2-0.5-1.2-1.1v-9.6c0-0.6,0.5-1.1,1.2-1.1h2.3c0.6,0,1.2,0.5,1.2,1.1V586z M-810,583.9
	c0-2.3-2.1-4.3-4.6-4.3h-4.6v-3.2c0-2.9-2.6-5.4-5.8-5.4h-2.3c-3.2,0-5.8,2.4-5.8,5.4v3.2h-13.8v-3.2c0-2.9-2.6-5.4-5.8-5.4h-2.3
	c-3.2,0-5.8,2.4-5.8,5.4v3.2h-4.6c-2.5,0-4.6,1.9-4.6,4.3v42.9c0,2.3,2.1,4.3,4.6,4.3h50.8c2.5,0,4.6-1.9,4.6-4.3V583.9z"/>
</svg>
