<?xml version="1.0" encoding="utf-8"?>
<!-- Generator: Adobe Illustrator 18.1.1, SVG Export Plug-In . SVG Version: 6.00 Build 0)  -->
<svg version="1.1" id="subject-bg_2_" xmlns="http://www.w3.org/2000/svg" xmlns:xlink="http://www.w3.org/1999/xlink" x="0px"
	 y="0px" viewBox="15.167 -16.333 1000.636 1000.678" style="enable-background:new 15.167 -16.333 1000.636 1000.678;"
	 xml:space="preserve">
<path id="subject-bg" d="M616.598,486.738c75.555,37.316,127.522,115.148,127.522,205.118
	c0,126.271-102.363,228.635-228.635,228.635S286.85,818.127,286.85,691.856c0-89.97,51.967-167.802,127.522-205.118
	c44.355-29.86,77.673-74.858,92.549-127.59c-11.79-27.56-34.916-49.903-64.119-62.207H297.142c-68.82,0-124.61-55.819-124.61-124.71
	c0-68.875,55.84-124.71,124.61-124.71h436.685c68.82,0,124.61,55.819,124.61,124.71c0,68.875-55.84,124.71-124.61,124.71H588.168
	c-29.203,12.305-52.329,34.648-64.119,62.207C538.925,411.88,572.243,456.878,616.598,486.738z"/>
</svg>
