<?xml version="1.0" encoding="utf-8"?>
<!-- Generator: Adobe Illustrator 19.0.0, SVG Export Plug-In . SVG Version: 6.00 Build 0)  -->
<svg version="1.1" id="图层_1" xmlns:sketch="http://www.bohemiancoding.com/sketch/ns"
	 xmlns="http://www.w3.org/2000/svg" xmlns:xlink="http://www.w3.org/1999/xlink" x="0px" y="0px" viewBox="-870 561 60 80"
	 style="enable-background:new -870 561 60 80;" xml:space="preserve">
<title>fa-file-text-o</title>
<desc>Created with Sketch.</desc>
<path id="fa-file-text-o" sketch:type="MSShapeGroup" d="M-812.7,578l-12.2-13.9c-1.4-1.7-4.3-3-6.4-3h-35c-2.1,0-3.8,1.9-3.8,4.3
	v71.4c0,2.4,1.7,4.3,3.8,4.3h52.5c2.1,0,3.8-1.9,3.8-4.3v-51.4C-810,582.9-811.2,579.6-812.7,578L-812.7,578z M-830,567.1
	c0.7,0.3,1.3,0.7,1.6,1l12.2,14c0.3,0.3,0.6,1.1,0.9,1.8H-830V567.1z M-815,635.3h-50v-68.6h30v18.6c0,2.4,1.7,4.3,3.8,4.3h16.2
	V635.3z M-855,596.7v2.9c0,0.8,0.5,1.4,1.2,1.4h27.5c0.7,0,1.2-0.6,1.2-1.4v-2.9c0-0.8-0.5-1.4-1.2-1.4h-27.5
	C-854.5,595.3-855,595.9-855,596.7L-855,596.7z M-826.2,606.7h-27.5c-0.7,0-1.2,0.6-1.2,1.4v2.9c0,0.8,0.5,1.4,1.2,1.4h27.5
	c0.7,0,1.2-0.6,1.2-1.4v-2.9C-825,607.3-825.5,606.7-826.2,606.7L-826.2,606.7z M-826.2,618.1h-27.5c-0.7,0-1.2,0.6-1.2,1.4v2.9
	c0,0.8,0.5,1.4,1.2,1.4h27.5c0.7,0,1.2-0.6,1.2-1.4v-2.9C-825,618.8-825.5,618.1-826.2,618.1L-826.2,618.1z"/>
</svg>
