<?xml version="1.0" encoding="utf-8"?>
<!-- Generator: Adobe Illustrator 19.0.0, SVG Export Plug-In . SVG Version: 6.00 Build 0)  -->
<svg version="1.1" id="图层_1" xmlns:sketch="http://www.bohemiancoding.com/sketch/ns"
	 xmlns="http://www.w3.org/2000/svg" xmlns:xlink="http://www.w3.org/1999/xlink" x="0px" y="0px" viewBox="-865 566 70 70"
	 style="enable-background:new -865 566 70 70;" xml:space="preserve">
<title>fa-file-o</title>
<desc>Created with Sketch.</desc>
<path id="fa-file-o" sketch:type="MSShapeGroup" d="M-798.8,581H-815c-1.5,0-3.5,0.7-5,1.6v-12.8c0-2.1-1.7-3.8-3.8-3.8H-840
	c-2.1,0-5,1.2-6.4,2.7l-15.9,15.9c-1.4,1.4-2.7,4.3-2.7,6.4v26.2c0,2.1,1.7,3.8,3.8,3.8h21.2v11.2c0,2.1,1.7,3.8,3.8,3.8h37.5
	c2.1,0,3.8-1.7,3.8-3.8v-47.5C-795,582.7-796.7,581-798.8,581L-798.8,581z M-820,589.3V601h-11.7L-820,589.3z M-845,574.3V586h-11.7
	L-845,574.3z M-837.3,599.6c-1.4,1.4-2.7,4.3-2.7,6.4v10h-20v-25h16.2c2.1,0,3.8-1.7,3.8-3.8V571h15v16.2L-837.3,599.6z M-800,631
	h-35v-25h16.2c2.1,0,3.8-1.7,3.8-3.8V586h15V631z"/>
</svg>
