<?xml version="1.0" encoding="utf-8"?>
<!-- Generator: Adobe Illustrator 19.0.0, SVG Export Plug-In . SVG Version: 6.00 Build 0)  -->
<svg version="1.1" id="图层_1" xmlns:sketch="http://www.bohemiancoding.com/sketch/ns"
	 xmlns="http://www.w3.org/2000/svg" xmlns:xlink="http://www.w3.org/1999/xlink" x="0px" y="0px" viewBox="-823 542 155 117"
	 style="enable-background:new -823 542 155 117;" xml:space="preserve">
<title>fa-linechart</title>
<desc>Created with Sketch.</desc>
<path id="fa-linechart" sketch:type="MSShapeGroup" d="M-668,644.7h-140.6V542H-823v117h155V644.7z M-689,553.7
	c0-1.3-0.9-2.3-2.1-2.3H-720c-1.9,0-2.9,2.5-1.5,4l8,8.8l-30.8,33.8l-15.5-17c-0.9-0.9-2.2-0.9-3.1,0l-38.8,42.7l12.7,14l27.6-30.3
	l15.5,17c0.9,0.9,2.2,0.9,3.1,0l42-46.2l8,8.8c1.4,1.5,3.7,0.4,3.7-1.6V553.7z"/>
</svg>
