<?xml version="1.0" encoding="utf-8"?>
<!-- Generator: Adobe Illustrator 19.0.0, SVG Export Plug-In . SVG Version: 6.00 Build 0)  -->
<svg version="1.1" id="time" xmlns="http://www.w3.org/2000/svg" xmlns:xlink="http://www.w3.org/1999/xlink" x="0px" y="0px"
	 viewBox="15.167 -16.333 1000.636 1000.678" style="enable-background:new 15.167 -16.333 1000.636 1000.678;"
	 xml:space="preserve">
<g id="time_1_">
	<path id="time_2_" d="M515.48,47.838c-240.815,0-436.035,195.221-436.035,436.035S274.665,919.909,515.48,919.909
		c240.817,0,436.035-195.221,436.035-436.035S756.297,47.838,515.48,47.838z M515.48,832.702
		c-192.652,0-348.828-156.176-348.828-348.828S322.828,135.045,515.48,135.045s348.828,156.176,348.828,348.828
		S708.132,832.702,515.48,832.702z"/>
	<path id="time-path" d="M690.296,440.27H559.083V309.451c0-24.077-19.353-43.596-43.604-43.596
		c-24.08,0-43.604,19.348-43.604,43.596c0,0,0,166.435,0,174.422c0,24.083,19.665,43.604,43.202,43.604h175.218
		c23.862,0,43.202-19.353,43.202-43.604C733.498,459.791,713.833,440.27,690.296,440.27z"/>
</g>
</svg>
