<?xml version="1.0" encoding="utf-8"?>
<!-- Generator: Adobe Illustrator 19.0.0, SVG Export Plug-In . SVG Version: 6.00 Build 0)  -->
<svg version="1.1" id="ico-training_1_" xmlns="http://www.w3.org/2000/svg" xmlns:xlink="http://www.w3.org/1999/xlink" x="0px"
	 y="0px" viewBox="15.167 -16.333 1000.636 1000.678" style="enable-background:new 15.167 -16.333 1000.636 1000.678;"
	 xml:space="preserve">
<path id="ico-training" d="M837.168,513.25H778.68v234.191c0,16.019-12.98,29.004-29.244,29.004
	c-16.151,0-29.244-13.315-29.244-29.004V513.25H310.777v234.191c0,16.019-12.98,29.004-29.244,29.004
	c-16.151,0-29.244-13.315-29.244-29.004V513.25h-58.488v87.866c0,16.077-12.98,29.109-29.244,29.109
	c-16.151,0-29.244-13.325-29.244-29.109V513.25h-29.298c-16.121,0-29.19-12.98-29.19-29.244c0-16.151,13.083-29.244,29.19-29.244
	h29.298v-87.866c0-16.077,12.98-29.109,29.244-29.109c16.151,0,29.244,13.325,29.244,29.109v87.866h58.488V220.571
	c0-16.019,12.98-29.004,29.244-29.004c16.151,0,29.244,13.315,29.244,29.004v234.191l0,0h409.415V220.571
	c0-16.019,12.98-29.004,29.244-29.004c16.151,0,29.244,13.315,29.244,29.004v234.191h58.488v-87.866
	c0-16.077,12.98-29.109,29.244-29.109c16.151,0,29.244,13.325,29.244,29.109v87.866h29.298c16.121,0,29.19,12.98,29.19,29.244
	c0,16.151-13.083,29.244-29.19,29.244h-29.298v87.866c0,16.077-12.98,29.109-29.244,29.109c-16.151,0-29.244-13.325-29.244-29.109
	V513.25L837.168,513.25z"/>
</svg>
