<?xml version="1.0" encoding="utf-8"?>
<!-- Generator: Adobe Illustrator 19.1.0, SVG Export Plug-In . SVG Version: 6.00 Build 0)  -->
<svg version="1.1" id="icon-trash" xmlns:sketch="http://www.bohemiancoding.com/sketch/ns"
	 xmlns="http://www.w3.org/2000/svg" xmlns:xlink="http://www.w3.org/1999/xlink" x="0px" y="0px" viewBox="-289 412.9 16 17"
	 style="enable-background:new -289 412.9 16 17;" xml:space="preserve">
<title>fa-trash-o</title>
<desc>Created with Sketch.</desc>
<path id="icon-trash_1_" sketch:type="MSShapeGroup" d="M-283.3,419.6c0-0.2-0.2-0.3-0.4-0.3h-0.7c-0.2,0-0.4,0.1-0.4,0.3v6
	c0,0.2,0.2,0.3,0.4,0.3h0.7c0.2,0,0.4-0.1,0.4-0.3V419.6z M-280.4,419.6c0-0.2-0.2-0.3-0.4-0.3h-0.7c-0.2,0-0.4,0.1-0.4,0.3v6
	c0,0.2,0.2,0.3,0.4,0.3h0.7c0.2,0,0.4-0.1,0.4-0.3V419.6z M-277.5,419.6c0-0.2-0.2-0.3-0.4-0.3h-0.7c-0.2,0-0.4,0.1-0.4,0.3v6
	c0,0.2,0.2,0.3,0.4,0.3h0.7c0.2,0,0.4-0.1,0.4-0.3V419.6z M-276,427.2c0,0.5-0.3,0.8-0.4,0.8h-9.5c-0.1,0-0.4-0.3-0.4-0.8v-9.9h10.2
	L-276,427.2z M-283.6,415.9l0.6-1.2c0,0,0.1-0.1,0.2-0.1h3.6c0.1,0,0.2,0.1,0.2,0.1l0.5,1.2H-283.6z M-273,416.3
	c0-0.2-0.3-0.3-0.5-0.3h-3.5l-0.8-1.7c-0.2-0.5-0.9-0.9-1.5-0.9h-3.6c-0.6,0-1.3,0.4-1.5,0.9l-0.8,1.7h-3.5c-0.2,0-0.4,0.1-0.4,0.3
	v0.7c0,0.2,0.2,0.3,0.4,0.3h1.1v9.9c0,1.1,0.8,2.1,1.8,2.1h9.5c1,0,1.8-1,1.8-2.1v-9.9h1.1c0.2,0,0.4-0.1,0.4-0.3V416.3L-273,416.3z
	"/>
</svg>
