<?xml version="1.0" encoding="utf-8"?>
<!-- Generator: Adobe Illustrator 19.0.0, SVG Export Plug-In . SVG Version: 6.00 Build 0)  -->
<svg version="1.1" id="icon-studentlist_1_" xmlns:sketch="http://www.bohemiancoding.com/sketch/ns"
	 xmlns="http://www.w3.org/2000/svg" xmlns:xlink="http://www.w3.org/1999/xlink" x="0px" y="0px" viewBox="-891 592 18 18"
	 style="enable-background:new -891 592 18 18;" xml:space="preserve">
<title>Fill 176</title>
<desc>Created with Sketch.</desc>
<g id="icon-studentlist" transform="translate(340.000000, 10.000000)">
	<path id="Fill-176" d="M-1213.6,592.1h-3.4c-0.3,0-0.6,0.3-0.6,0.6c0,0.3,0.3,0.6,0.6,0.6h3.4c0.3,0,0.6-0.3,0.6-0.6
		C-1213,592.4-1213.3,592.1-1213.6,592.1L-1213.6,592.1z M-1213.6,588.8h-4.5c-0.3,0-0.6,0.3-0.6,0.6s0.3,0.6,0.6,0.6h4.5
		c0.3,0,0.6-0.3,0.6-0.6S-1213.3,588.8-1213.6,588.8L-1213.6,588.8z M-1213.6,595.5h-3.4c-0.3,0-0.6,0.3-0.6,0.6
		c0,0.3,0.3,0.6,0.6,0.6h3.4c0.3,0,0.6-0.3,0.6-0.6C-1213,595.8-1213.3,595.5-1213.6,595.5L-1213.6,595.5z M-1218.1,586.5h4.5
		c0.3,0,0.6-0.3,0.6-0.6c0-0.3-0.3-0.6-0.6-0.6h-4.5c-0.3,0-0.6,0.3-0.6,0.6C-1218.6,586.2-1218.4,586.5-1218.1,586.5L-1218.1,586.5
		z M-1219.8,596.3c0,1.4-1.2,2.5-2.8,2.5h-4.6c-1.5,0-2.8-1.1-2.8-2.5v-1.7c0-1.2,0.9-2.2,2.1-2.5c0.8,0.7,1.8,1.1,2.9,1.1
		s2.1-0.4,2.9-1.1c1.2,0.3,2.1,1.3,2.1,2.5V596.3L-1219.8,596.3z M-1228.8,587.6c0-2.5,1.8-4.5,3.9-4.5s3.9,2,3.9,4.5
		s-1.8,4.5-3.9,4.5S-1228.8,590.1-1228.8,587.6L-1228.8,587.6z M-1220.9,591.2c0.7-1,1.2-2.2,1.2-3.6c0-3.1-2.3-5.6-5.1-5.6
		s-5.1,2.5-5.1,5.6c0,1.4,0.4,2.6,1.2,3.6c-1.3,0.5-2.3,1.7-2.3,3.2v2.2c0,1.9,1.5,3.4,3.4,3.4h5.6c1.9,0,3.4-1.5,3.4-3.4v-2.2
		C-1218.6,592.9-1219.6,591.7-1220.9,591.2L-1220.9,591.2z"/>
</g>
</svg>
