<?xml version="1.0" encoding="utf-8"?>
<!-- Generator: Adobe Illustrator 19.0.0, SVG Export Plug-In . SVG Version: 6.00 Build 0)  -->
<svg version="1.1" id="icon-video" xmlns="http://www.w3.org/2000/svg" xmlns:xlink="http://www.w3.org/1999/xlink" x="0px" y="0px"
	 viewBox="15.167 -16.333 1000.636 1000.678" style="enable-background:new 15.167 -16.333 1000.636 1000.678;"
	 xml:space="preserve">
<g id="icon-video_1_">
	<polygon points="369.501,739.454 734.461,483.982 369.501,228.509 	"/>
	<path d="M880.265,46.029h-729.56c-40.434,0-73.173,32.76-73.173,73.173v729.56c0,40.434,32.76,73.173,73.173,73.173h729.56
		c40.434,0,73.173-32.76,73.173-73.173v-729.56C953.438,78.767,920.677,46.029,880.265,46.029z M880.445,776.287
		c0,40.127-32.781,72.656-72.656,72.656H223.18c-40.127,0-72.656-32.781-72.656-72.656v-584.61
		c0-40.127,32.781-72.656,72.656-72.656h584.61c40.127,0,72.656,32.781,72.656,72.656V776.287z"/>
</g>
</svg>
