<?xml version="1.0" encoding="utf-8"?>
<!-- Generator: Adobe Illustrator 18.1.1, SVG Export Plug-In . SVG Version: 6.00 Build 0)  -->
<svg version="1.1" id="图层_1" xmlns:sketch="http://www.bohemiancoding.com/sketch/ns"
	 xmlns="http://www.w3.org/2000/svg" xmlns:xlink="http://www.w3.org/1999/xlink" x="0px" y="0px" viewBox="-57 180.9 480 480"
	 enable-background="new -57 180.9 480 480" xml:space="preserve">
<path d="M223.1,364.2h-70.6v-70.6c0-4.4-3.6-8-8-8h-10.2c-4.4,0-8,3.6-8,8v70.6H55.8c-4.4,0-8,3.6-8,8v10.2c0,4.4,3.6,8,8,8h70.6
	V461c0,4.4,3.6,8,8,8h10.2c4.4,0,8-3.6,8-8v-70.6h70.6c4.4,0,8-3.6,8-8v-10.2C231.1,367.8,227.5,364.2,223.1,364.2z M287.3,506.6
	c30.3-34.6,48.6-79.8,48.6-129.3c0-108.5-87.9-196.4-196.4-196.4S-57,268.8-57,377.3s87.9,196.4,196.4,196.4
	c49.5,0,94.8-18.3,129.3-48.6l135.7,135.7l18.5-18.5L287.3,506.6z M139.4,547.5c-94,0-170.2-76.2-170.2-170.2
	s76.2-170.2,170.2-170.2s170.2,76.2,170.2,170.2S233.5,547.5,139.4,547.5z"/>
</svg>
