<?xml version="1.0" encoding="utf-8"?>
<!-- Generator: Adobe Illustrator 19.0.0, SVG Export Plug-In . SVG Version: 6.00 Build 0)  -->
<svg version="1.1" id="ico-wrong-notebook" xmlns="http://www.w3.org/2000/svg" xmlns:xlink="http://www.w3.org/1999/xlink" x="0px"
	 y="0px" viewBox="15.167 -16.333 1000.636 1000.678" style="enable-background:new 15.167 -16.333 1000.636 1000.678;"
	 xml:space="preserve">
<path id="ico-wrong-notebook_1_" d="M893.937,805.688c0,32.18-34.823,58.297-77.729,58.297H272.102
	c-42.907,0-77.729-26.117-77.729-58.297V164.42c0-32.18,34.823-58.297,77.729-58.297h544.106c42.907,0,77.729,26.117,77.729,58.297
	V805.688L893.937,805.688z M77.778,206.818v79.496h58.297v158.992H77.778v79.496h58.297v158.992H77.778v79.496h58.297
	c0,158.992,0,158.992,116.594,158.992H835.64c116.594,0,116.594,0,116.594-158.992V206.818c0-158.992,0-158.992-116.594-158.992
	H252.669c-116.594,0-116.594,0-116.594,158.992H77.778z M748.194,208.143l29.149-43.723h58.297l-58.297,87.446l58.297,87.446
	h-58.297l-29.149-43.723l-29.149,43.723h-58.297l58.297-87.446l-58.297-87.446h58.297L748.194,208.143z M748.194,441.331
	l29.149-43.723h58.297l-58.297,87.446L835.64,572.5h-58.297l-29.149-43.723L719.046,572.5h-58.297l58.297-87.446l-58.297-87.446
	h58.297L748.194,441.331L748.194,441.331z M748.194,674.519l29.149-43.723h58.297l-58.297,87.446l58.297,87.446h-58.297
	l-29.149-43.723l-29.149,43.723h-58.297l58.297-87.446l-58.297-87.446h58.297L748.194,674.519L748.194,674.519z M581.631,222.717
	H331.787c-11.493,0-20.82,13.059-20.82,29.149c0,16.119,9.328,29.149,20.82,29.149h249.845c11.493,0,20.82-13.029,20.82-29.149
	C602.452,235.776,593.124,222.717,581.631,222.717z M581.631,689.094H331.787c-11.493,0-20.82,13.029-20.82,29.149
	s9.328,29.149,20.82,29.149h249.845c11.493,0,20.82-13.029,20.82-29.149S593.124,689.094,581.631,689.094z M581.631,455.905H331.787
	c-11.493,0-20.82,13.059-20.82,29.149c0,16.119,9.328,29.149,20.82,29.149h249.845c11.493,0,20.82-13.029,20.82-29.149
	C602.452,468.964,593.124,455.905,581.631,455.905z"/>
</svg>
